<svg xmlns="http://www.w3.org/2000/svg" viewBox="0 0 750 500"><g id="freepik--background-complete--inject-127"><path d="M351.52,476.29H339.71a.5.5,0,0,1,0-1h11.76a.52.52,0,0,1,.52.5A.48.48,0,0,1,351.52,476.29Zm-23.57,0H316.19a.5.5,0,0,1,0-1H328a.5.5,0,0,1,0,1Zm-22.66-2.91a.49.49,0,0,1-.38-.18,8.79,8.79,0,0,1-2.12-5.73V461.6a.5.5,0,0,1,1,0v5.87a7.82,7.82,0,0,0,1.88,5.08.51.51,0,0,1-.06.71A.49.49,0,0,1,305.29,473.38Zm54.4-4.15h-.07a.49.49,0,0,1-.42-.57,7.72,7.72,0,0,0,.09-1.18V457a.5.5,0,0,1,.5-.5.51.51,0,0,1,.5.5v10.5a9.68,9.68,0,0,1-.1,1.33A.51.51,0,0,1,359.69,469.23Zm-56.4-18.89a.5.5,0,0,1-.5-.5V438.08a.5.5,0,0,1,1,0v11.76A.5.5,0,0,1,303.29,450.34Zm56.5-4.63a.5.5,0,0,1-.5-.5V433.45a.5.5,0,0,1,.5-.5.51.51,0,0,1,.5.5v11.76A.5.5,0,0,1,359.79,445.71Zm-56.4-18.88h-.08a.51.51,0,0,1-.42-.57,8.78,8.78,0,0,1,8.69-7.46h0a.51.51,0,0,1,.5.5.5.5,0,0,1-.5.5,7.79,7.79,0,0,0-7.71,6.61A.5.5,0,0,1,303.39,426.83Zm54.38-4.15a.52.52,0,0,1-.38-.17,7.81,7.81,0,0,0-5.92-2.72h-4.61a.5.5,0,0,1,0-1h4.61a8.81,8.81,0,0,1,6.68,3.07.49.49,0,0,1,0,.7A.52.52,0,0,1,357.77,422.68Zm-22.66-2.89H323.35a.5.5,0,0,1,0-1h11.76a.5.5,0,0,1,0,1Z" style="fill:#e0e0e0"></path><rect x="544.65" y="246.61" width="60.95" height="60.95" rx="10.38" style="fill:#e0e0e0"></rect><path d="M577.77,276.77a7.49,7.49,0,0,0,4.46-6.92,7,7,0,1,0-14-.07,7.48,7.48,0,0,0,4.47,7c-10.8,1.63-10.31,13.37-10.31,13.37l25.54.12S588.48,278.39,577.77,276.77Z" style="fill:#fff"></path><rect x="223.9" y="383.67" width="67.81" height="67.81" rx="9.61" style="fill:#e0e0e0"></rect><path d="M242.8,434.09a1.51,1.51,0,0,1-1.07-2.57l8.06-8.06a13.89,13.89,0,0,1,1-18.36,13.78,13.78,0,1,1,1.13,20.49l-8.06,8.06A1.5,1.5,0,0,1,242.8,434.09Zm17.74-30a10.77,10.77,0,1,0,7.61,3.16A10.7,10.7,0,0,0,260.54,404.07Z" style="fill:#fff"></path><rect x="429.73" y="58.49" width="65.98" height="65.98" rx="10.38" style="fill:#e0e0e0"></rect><rect x="580.19" y="362.38" width="64.61" height="64.61" rx="10.16" style="fill:#e0e0e0"></rect><path d="M597.43,410.37l2.35-8.79a16.29,16.29,0,1,1,6.48,6.42Zm9.27-5.66.55.33a13.22,13.22,0,1,0-4.51-4.47l.34.56-1.32,4.9Z" style="fill:#fff"></path><path d="M619.81,396.1a2.69,2.69,0,0,0-2.32-.52c-.6.24-1,1.19-1.38,1.67a.57.57,0,0,1-.75.16,10.53,10.53,0,0,1-5.25-4.49.65.65,0,0,1,.08-.88,3.55,3.55,0,0,0,1-1.55,3.37,3.37,0,0,0-.43-1.83c-.32-.69-.67-1.66-1.35-2a1.85,1.85,0,0,0-2,.3,4.06,4.06,0,0,0-1.41,3.23,3.93,3.93,0,0,0,.13,1,8.17,8.17,0,0,0,1,2.27c.32.54.66,1.06,1,1.57a16,16,0,0,0,4.46,4.14,13.45,13.45,0,0,0,2.79,1.32,6.23,6.23,0,0,0,3.24.52,3.93,3.93,0,0,0,2.93-2.19,1.85,1.85,0,0,0,.14-1.11C621.47,396.93,620.43,396.47,619.81,396.1Z" style="fill:#fff;fill-rule:evenodd"></path><path d="M98.48,150.32H86.86a.5.5,0,0,1-.5-.5.5.5,0,0,1,.5-.5H98.43a.52.52,0,0,1,.52.5A.47.47,0,0,1,98.48,150.32Zm-23.2,0H63.71a.5.5,0,0,1-.5-.5.5.5,0,0,1,.5-.5H75.28a.5.5,0,0,1,.5.5A.5.5,0,0,1,75.28,150.32Zm-23.15,0H47.84a8.8,8.8,0,0,1-6.77-3.16.49.49,0,0,1,.06-.7.51.51,0,0,1,.71.06,7.79,7.79,0,0,0,6,2.8h4.29a.5.5,0,0,1,.5.5A.5.5,0,0,1,52.13,150.32Zm54.5-6.87h-.09a.51.51,0,0,1-.41-.58,7.73,7.73,0,0,0,.12-1.36V131.38a.5.5,0,0,1,1,0V141.5a8.7,8.7,0,0,1-.13,1.53A.5.5,0,0,1,106.63,143.45Zm-67.11-7.22a.5.5,0,0,1-.5-.5V124.15a.5.5,0,0,1,.5-.5.51.51,0,0,1,.5.5v11.58A.51.51,0,0,1,39.52,136.23Zm67.23-15.92a.5.5,0,0,1-.5-.5V108.23a.5.5,0,0,1,1,0v11.58A.5.5,0,0,1,106.75,120.31Zm-67.23-7.23a.5.5,0,0,1-.5-.5V101a.5.5,0,0,1,.5-.5.51.51,0,0,1,.5.5v11.58A.51.51,0,0,1,39.52,113.08Zm67.23-15.92a.5.5,0,0,1-.5-.5V90.91a7.82,7.82,0,0,0-1.84-5,.5.5,0,0,1,.77-.64,8.79,8.79,0,0,1,2.07,5.68v5.75A.5.5,0,0,1,106.75,97.16ZM39.64,89.94h-.08a.5.5,0,0,1-.41-.58,8.8,8.8,0,0,1,8.66-7.26h0a.49.49,0,0,1,.5.49.5.5,0,0,1-.5.51,7.81,7.81,0,0,0-7.67,6.44A.51.51,0,0,1,39.64,89.94Zm54.47-6.85H82.53a.51.51,0,0,1-.5-.5.5.5,0,0,1,.5-.5H94.11a.5.5,0,0,1,.5.5A.51.51,0,0,1,94.11,83.09ZM71,83.09H59.39a.5.5,0,0,1-.5-.5.5.5,0,0,1,.5-.5H71a.5.5,0,0,1,.5.5A.5.5,0,0,1,71,83.09Z" style="fill:#e0e0e0"></path><path d="M696.11,116H684.55a.51.51,0,0,1-.5-.5.5.5,0,0,1,.5-.5h11.51a.52.52,0,0,1,.53.5A.48.48,0,0,1,696.11,116ZM673,116H661.53a.51.51,0,0,1-.5-.5.5.5,0,0,1,.5-.5H673a.5.5,0,0,1,.5.5A.5.5,0,0,1,673,116Zm-23,0h-9.95a9,9,0,0,1-1.64-.15.51.51,0,0,1-.4-.59.5.5,0,0,1,.58-.4,7.94,7.94,0,0,0,1.46.14H650a.5.5,0,0,1,.5.5A.5.5,0,0,1,650,116Zm54.23-6.82h-.09a.5.5,0,0,1-.4-.58,8.3,8.3,0,0,0,.12-1.41v-10a.51.51,0,0,1,.5-.5.5.5,0,0,1,.5.5v10a8.47,8.47,0,0,1-.14,1.59A.49.49,0,0,1,704.25,109.21Zm-72.5-1.5a.49.49,0,0,1-.5-.49V95.71a.5.5,0,0,1,.5-.5.5.5,0,0,1,.5.5v11.5A.51.51,0,0,1,631.75,107.71ZM704.38,86.2a.5.5,0,0,1-.5-.5V74.19a.5.5,0,0,1,.5-.5.5.5,0,0,1,.5.5V85.7A.5.5,0,0,1,704.38,86.2Zm-72.63-1.5a.5.5,0,0,1-.5-.5V72.69a.5.5,0,0,1,.5-.5.5.5,0,0,1,.5.5V84.2A.51.51,0,0,1,631.75,84.7Zm72.63-21.52a.5.5,0,0,1-.5-.5V51.21a.52.52,0,0,1,.5-.52.48.48,0,0,1,.5.48V62.68A.5.5,0,0,1,704.38,63.18Zm-72.63-1.5a.5.5,0,0,1-.5-.5v-10a8.64,8.64,0,0,1,.15-1.62.49.49,0,0,1,.58-.4.5.5,0,0,1,.4.58,7.64,7.64,0,0,0-.13,1.44v10A.51.51,0,0,1,631.75,61.68Zm65.83-18.15h-.09a7.46,7.46,0,0,0-1.43-.13h-10a.51.51,0,0,1-.5-.5.5.5,0,0,1,.5-.5h10a9.45,9.45,0,0,1,1.61.14.51.51,0,0,1,.4.59A.49.49,0,0,1,697.58,43.53Zm-23-.14H663.06a.5.5,0,0,1-.5-.5.5.5,0,0,1,.5-.5h11.51a.5.5,0,0,1,.5.5A.5.5,0,0,1,674.57,43.39Zm-23,0H640.07a.52.52,0,0,1-.52-.5.49.49,0,0,1,.49-.5h11.51a.5.5,0,0,1,.5.5A.5.5,0,0,1,651.55,43.39Z" style="fill:#e0e0e0"></path><path d="M463.88,70.39,463.16,67A11.54,11.54,0,0,0,440.64,72l.74,3.51a6.44,6.44,0,0,0-4,7.43L442,103.19a6.44,6.44,0,0,0,7.72,4.87l21-4.74a6.45,6.45,0,0,0,4.87-7.72L471,75.36A6.45,6.45,0,0,0,463.88,70.39Zm-3.35,23.32L455,95l0-4.16a3.44,3.44,0,0,1,.37-6.6,3.43,3.43,0,0,1,4.1,2.6,3.39,3.39,0,0,1-.85,3.11C459.35,91.35,460.53,93.71,460.53,93.71Zm.92-22.8-17.66,4-.72-3.41a9.05,9.05,0,0,1,17.66-4Z" style="fill:#fff"></path><path d="M276.64,118.78a28.75,28.75,0,0,1,7-3l1.45-7,11.77-.2,1.69,6.9a29.07,29.07,0,0,1,7.14,2.81l5.95-3.9,8.47,8.18-3.69,6.08a28.31,28.31,0,0,1,3.06,7l7,1.45.21,11.76-6.91,1.7a28.83,28.83,0,0,1-2.81,7.14l3.9,5.94-8.17,8.47-6.08-3.69a28.64,28.64,0,0,1-7,3.06l-1.45,7-11.77.2-1.69-6.91a28.3,28.3,0,0,1-7.14-2.81l-5.95,3.9-8.46-8.17,3.68-6.08a29.24,29.24,0,0,1-3.06-7l-7-1.45-.21-11.76,6.91-1.7a29.22,29.22,0,0,1,2.81-7.14l-3.9-5.95,8.18-8.46,6.08,3.68Zm6.27,15.68a12.63,12.63,0,1,0,17.85-.31A12.62,12.62,0,0,0,282.91,134.46Z" style="fill:#ebebeb"></path><path d="M282.91,134.46a9.51,9.51,0,0,1,2.35-2.06,12.75,12.75,0,0,1,13.84,0,12.88,12.88,0,0,1,4.52,5.1,12.9,12.9,0,0,1,1.22,7.43,12.87,12.87,0,0,1-10.65,11,12.41,12.41,0,0,1-3.89.07,12.22,12.22,0,0,1-3.58-1,12.88,12.88,0,0,1-5.26-4.34,12.79,12.79,0,0,1-.53-13.83,9.42,9.42,0,0,1,2-2.42c.07.06-.76.83-1.73,2.56a12.61,12.61,0,0,0-1.4,8.08,12.33,12.33,0,0,0,7.21,9.34,12.3,12.3,0,0,0,7.08.87,12.21,12.21,0,0,0,10.07-10.44,12.31,12.31,0,0,0-1.12-7,12.3,12.3,0,0,0-9.58-6.87,12.59,12.59,0,0,0-8,1.68C283.71,133.67,283,134.53,282.91,134.46Z" style="fill:#ebebeb"></path><path d="M276.64,118.78a2,2,0,0,1-.39-.2l-1.17-.68-4.58-2.7.14,0c-2.08,2.18-4.82,5-8.12,8.51l0-.23,3.92,5.94.07.1-.06.12a28.62,28.62,0,0,0-2.77,7.09l0,.14-.14,0-6.91,1.72.2-.26c.08,3.71.15,7.64.24,11.77l-.23-.28,7,1.44.17,0,0,.17a28.84,28.84,0,0,0,3,7l.1.16-.1.16-3.68,6.09-.05-.4,8.48,8.16-.42,0,5.94-3.9.18-.12.18.1a28.31,28.31,0,0,0,7.05,2.77l.21.05.05.21,1.7,6.91-.35-.27,11.76-.21-.34.28,1.45-7,0-.22.21-.06a28.09,28.09,0,0,0,6.94-3h0l.19-.11.18.11,6.08,3.69-.44.06q4.14-4.29,8.17-8.47l0,.45-3.89-6-.12-.18.1-.19a28.51,28.51,0,0,0,2.78-7l.05-.2.21,0,6.91-1.69-.26.34q-.1-6-.2-11.77l.27.32-7-1.46-.19,0-.05-.18a28.82,28.82,0,0,0-3-7l-.09-.16.09-.16,3.7-6.08.05.38-8.45-8.2.34,0-5.95,3.88-.13.09-.14-.08a28.49,28.49,0,0,0-7.07-2.8l-.14,0,0-.14c-.6-2.51-1.15-4.78-1.67-6.91l.22.16-11.77.15.15-.13c-.59,2.78-1.08,5.06-1.49,7l0,.07-.06,0a29.37,29.37,0,0,0-5.38,2.07l-1.27.66a2.35,2.35,0,0,1-.42.21s.13-.1.39-.26.68-.42,1.24-.72a28.15,28.15,0,0,1,5.37-2.19l-.08.09c.38-1.9.84-4.19,1.41-7l0-.13h.13l11.77-.26h.17l0,.16c.53,2.14,1.09,4.4,1.72,6.91l-.18-.18a29.07,29.07,0,0,1,7.21,2.82h-.27l5.94-3.92.18-.12.16.16c2.69,2.57,5.5,5.28,8.49,8.15l.17.17-.12.21c-1.2,2-2.42,4-3.68,6.08v-.32a29.08,29.08,0,0,1,3.1,7.11l-.24-.23,7,1.44.26.05v.27q.1,5.74.22,11.77v.27l-.27.07-6.9,1.7.25-.26a29.15,29.15,0,0,1-2.84,7.23v-.37l3.9,5.95.16.24-.2.2L313,172.38l-.2.21-.25-.15-6.08-3.69h.37a29.34,29.34,0,0,1-7.12,3.09l.25-.27c-.49,2.39-1,4.76-1.45,7l-.06.28h-.28l-11.77.2h-.28l-.07-.27c-.58-2.39-1.16-4.75-1.69-6.91l.26.25a29.61,29.61,0,0,1-7.23-2.84l.36,0-5.95,3.89-.23.15-.19-.18-8.46-8.19-.18-.18.13-.22,3.7-6.07v.32a28.87,28.87,0,0,1-3.08-7.12l.22.21-7-1.46-.22,0v-.22c-.07-4.13-.13-8.06-.18-11.77v-.21l.2,0,6.92-1.67-.18.17a29.26,29.26,0,0,1,2.86-7.18v.22l-3.87-6-.08-.13.1-.1,8.22-8.42.07-.07.08,0,4.48,2.79,1.15.73A2.91,2.91,0,0,1,276.64,118.78Z" style="fill:#ebebeb"></path><path d="M248.93,65.06a19.59,19.59,0,0,1,4.8-2.09l1-4.76,8-.14,1.16,4.72a19.36,19.36,0,0,1,4.88,1.92l4.06-2.66,5.78,5.58-2.51,4.15a19.84,19.84,0,0,1,2.08,4.81l4.76,1,.14,8-4.72,1.16a19.29,19.29,0,0,1-1.92,4.87l2.67,4.07-5.59,5.78L269.4,99a19.49,19.49,0,0,1-4.81,2.09l-1,4.76-8,.14-1.15-4.72a20,20,0,0,1-4.88-1.92L245.47,102l-5.79-5.58,2.52-4.15a19.87,19.87,0,0,1-2.09-4.81l-4.75-1-.15-8,4.72-1.16a20.07,20.07,0,0,1,1.92-4.87l-2.66-4.07,5.58-5.78,4.16,2.52Zm4.28,10.71a8.62,8.62,0,1,0,12.2-.22A8.61,8.61,0,0,0,253.21,75.77Z" style="fill:#ebebeb"></path><path d="M253.21,75.77a6.38,6.38,0,0,1,1.61-1.41A8.52,8.52,0,0,1,260.45,73a8.66,8.66,0,0,1,3.82,1.36,8.76,8.76,0,0,1,3.09,3.48,8.49,8.49,0,0,1,.79,2.42A8.77,8.77,0,0,1,268.2,83a8.82,8.82,0,0,1-7.28,7.54,8.91,8.91,0,0,1-5.11-.66,8.73,8.73,0,0,1-3.59-3,8.71,8.71,0,0,1-.36-9.44,6.42,6.42,0,0,1,1.35-1.65A21.09,21.09,0,0,0,252,77.52a8.6,8.6,0,0,0-1,5.52A8.47,8.47,0,0,0,256,89.42a7.74,7.74,0,0,0,2.32.64,7.84,7.84,0,0,0,2.51,0,8.37,8.37,0,0,0,6.89-7.13,8.11,8.11,0,0,0,0-2.51,7.64,7.64,0,0,0-.73-2.3,8.47,8.47,0,0,0-6.54-4.7,8.61,8.61,0,0,0-5.49,1.15A20.85,20.85,0,0,0,253.21,75.77Z" style="fill:#ebebeb"></path><path d="M248.93,65.06l-.27-.14-.8-.46-3.13-1.85.1,0-5.55,5.82,0-.16L242,72.31l.05.07,0,.08a19.76,19.76,0,0,0-1.89,4.84l0,.1-.1,0-4.71,1.17.13-.17q.08,3.8.16,8l-.15-.18,4.75,1,.13,0,0,.12a19.83,19.83,0,0,0,2.07,4.76l.07.11-.07.11c-.77,1.29-1.63,2.71-2.51,4.15l0-.27,5.79,5.58-.29,0,4.06-2.67.12-.07.12.07a19.84,19.84,0,0,0,4.82,1.89l.14,0,0,.14c.36,1.48.76,3.09,1.16,4.72l-.24-.18,8-.15-.24.2,1-4.76,0-.15.15,0a19.26,19.26,0,0,0,4.74-2.06h0l.13-.08.13.08,4.15,2.52-.3,0c1.88-2,3.75-3.88,5.58-5.78l0,.3q-1.33-2.05-2.66-4.06l-.08-.13.07-.13a19.06,19.06,0,0,0,1.9-4.81l0-.14.14,0,4.72-1.15-.18.23c-.05-2.74-.09-5.42-.14-8l.19.22-4.76-1-.13,0,0-.13a19.48,19.48,0,0,0-2.06-4.76l-.06-.11.06-.11,2.53-4.15,0,.26-5.77-5.6.23,0-4.06,2.66-.1.06-.09-.06A19.88,19.88,0,0,0,263.88,63l-.09,0,0-.09c-.41-1.72-.79-3.26-1.14-4.72l.15.11-8,.1.1-.09c-.4,1.9-.74,3.46-1,4.76v0l0,0a20.56,20.56,0,0,0-3.68,1.41l-.86.45-.29.15a1.64,1.64,0,0,1,.27-.18,9.69,9.69,0,0,1,.84-.49,19.68,19.68,0,0,1,3.67-1.5l-.05.06c.26-1.3.57-2.86,1-4.76V58.1h.09l8-.18h.12l0,.12c.36,1.45.74,3,1.17,4.71l-.12-.12a20.1,20.1,0,0,1,4.92,1.92h-.18l4.06-2.67.12-.09.11.11,5.8,5.57.12.12-.09.14-2.51,4.15v-.22a20,20,0,0,1,2.12,4.86l-.17-.16,4.76,1,.18,0v.19q.07,3.92.15,8v.19l-.18,0L278.45,87l.18-.18a20.22,20.22,0,0,1-1.94,4.94v-.25q1.32,2,2.66,4.06l.11.16-.14.15-5.58,5.78-.14.14-.16-.1-4.16-2.52h.25a20.24,20.24,0,0,1-4.86,2.11l.17-.19c-.34,1.63-.67,3.26-1,4.76l0,.19h-.19l-8,.14h-.19l0-.18c-.4-1.63-.79-3.25-1.15-4.72l.17.17a20,20,0,0,1-4.93-1.94h.24l-4.07,2.66-.15.1-.13-.13c-2-1.94-4-3.84-5.78-5.59l-.13-.12.1-.16c.87-1.44,1.74-2.86,2.52-4.14v.22a19.71,19.71,0,0,1-2.1-4.87l.15.15-4.75-1-.16,0v-.16c0-2.82-.08-5.51-.12-8v-.14l.13,0,4.73-1.14-.12.11a19.36,19.36,0,0,1,1.95-4.9v.15l-2.64-4.08-.06-.08.07-.07,5.62-5.76,0,0,.05,0,3.06,1.91.79.5A1.64,1.64,0,0,1,248.93,65.06Z" style="fill:#ebebeb"></path><path d="M176.63,199.88a19.42,19.42,0,0,1,4.8-2.09l1-4.76,8-.14,1.16,4.72a19.51,19.51,0,0,1,4.88,1.92l4.06-2.66,5.78,5.58-2.52,4.15a19.49,19.49,0,0,1,2.09,4.81l4.76,1,.14,8-4.72,1.16a19.29,19.29,0,0,1-1.92,4.87l2.67,4.07-5.59,5.78-4.15-2.52a19.49,19.49,0,0,1-4.81,2.09l-1,4.76-8,.14-1.15-4.72a20,20,0,0,1-4.88-1.92l-4.06,2.66-5.79-5.58,2.52-4.15a19.49,19.49,0,0,1-2.09-4.81l-4.76-1-.14-8,4.72-1.16a20.07,20.07,0,0,1,1.92-4.87l-2.66-4.07,5.58-5.78,4.16,2.52Zm4.28,10.71a8.62,8.62,0,1,0,12.2-.22A8.61,8.61,0,0,0,180.91,210.59Z" style="fill:#ebebeb"></path><path d="M180.91,210.59a6.38,6.38,0,0,1,1.61-1.41,8.51,8.51,0,0,1,5.62-1.33,8.69,8.69,0,0,1,6.92,4.84,8.9,8.9,0,0,1,.83,5.07,8.79,8.79,0,0,1-7.28,7.55,8.14,8.14,0,0,1-2.65,0,8,8,0,0,1-2.45-.7,8.81,8.81,0,0,1-3.59-3,8.62,8.62,0,0,1-1.49-3.77,8.52,8.52,0,0,1,1.13-5.67,6.42,6.42,0,0,1,1.35-1.65,21.09,21.09,0,0,0-1.18,1.75,8.6,8.6,0,0,0-1,5.52,8.41,8.41,0,0,0,4.93,6.38,7.74,7.74,0,0,0,2.32.64,7.84,7.84,0,0,0,2.51,0,8.37,8.37,0,0,0,6.88-7.13,7.82,7.82,0,0,0,0-2.51,7.64,7.64,0,0,0-.73-2.3,8.46,8.46,0,0,0-6.55-4.7,8.59,8.59,0,0,0-5.48,1.15A20.85,20.85,0,0,0,180.91,210.59Z" style="fill:#ebebeb"></path><path d="M176.63,199.88l-.27-.14-.8-.46-3.13-1.85.1,0L167,203.23v-.16l2.68,4.06.05.07,0,.08a19.37,19.37,0,0,0-1.89,4.84l0,.1-.1,0L163,213.41l.14-.17q.07,3.8.16,8l-.16-.18,4.76,1,.12,0,0,.12a19.83,19.83,0,0,0,2.07,4.76l.07.11-.07.11-2.51,4.15,0-.27,5.8,5.58-.29,0L177.1,234l.12-.07.12.06a19.46,19.46,0,0,0,4.82,1.9l.14,0,0,.14c.36,1.48.76,3.09,1.16,4.72l-.24-.18,8-.15-.24.2c.31-1.51.65-3.13,1-4.76l0-.15.14,0a19.54,19.54,0,0,0,4.75-2.06h0l.13-.08.13.08,4.15,2.52-.31,0,5.59-5.78,0,.3L204,226.61l-.08-.13.07-.13a19.44,19.44,0,0,0,1.9-4.81l0-.14.14,0,4.73-1.15-.18.23c-.05-2.74-.09-5.42-.14-8l.18.22-4.75-1-.13,0,0-.13a19.48,19.48,0,0,0-2.06-4.76l-.07-.11.07-.11,2.53-4.15,0,.26-5.77-5.6.23,0-4.07,2.66-.09.06-.09-.06a19.48,19.48,0,0,0-4.83-1.91l-.1,0,0-.09c-.41-1.72-.79-3.26-1.14-4.73l.14.12-8,.1.11-.09c-.41,1.9-.74,3.46-1,4.75v0h-.05a21,21,0,0,0-3.67,1.42l-.87.45-.28.15.26-.19c.19-.11.47-.28.85-.48a18.73,18.73,0,0,1,3.67-1.5l0,.06.95-4.76,0-.09h.09l8-.18h.11l0,.11c.37,1.46.75,3,1.18,4.72l-.12-.12a20.25,20.25,0,0,1,4.92,1.92h-.18l4-2.67.13-.09.11.11,5.79,5.57.12.12-.08.14L204,206.71v-.22a20,20,0,0,1,2.12,4.86l-.17-.16,4.76,1,.17,0v.19q.07,3.91.15,8v.19l-.18,0-4.72,1.16.17-.18a19.45,19.45,0,0,1-1.94,4.94v-.25L207,230.4l.11.16-.14.15-5.58,5.78-.14.14-.17-.1L197,234h.25a20.24,20.24,0,0,1-4.86,2.11l.17-.19-1,4.76,0,.19h-.2l-8,.14h-.2l0-.18-1.16-4.72.18.17a20.11,20.11,0,0,1-4.94-1.94h.25L173.29,237l-.15.1L173,237l-5.78-5.59-.13-.13.09-.15,2.53-4.14v.22a20.14,20.14,0,0,1-2.11-4.87l.16.15-4.76-1-.15,0v-.16c0-2.82-.09-5.51-.12-8v-.14l.14,0,4.72-1.15-.12.12a20.13,20.13,0,0,1,1.95-4.9v.14l-2.65-4.07-.05-.08.07-.07,5.62-5.76,0,0,0,0,3.06,1.91.79.49Z" style="fill:#ebebeb"></path><path d="M358.76,384.29a19.87,19.87,0,0,1,4.81-2.09l1-4.76,8-.14,1.15,4.72a20,20,0,0,1,4.88,1.92l4.06-2.66,5.79,5.58L386,391a19.42,19.42,0,0,1,2.09,4.8l4.76,1,.14,8L388.23,406a20.3,20.3,0,0,1-1.92,4.88L389,415l-5.58,5.78-4.16-2.52a19.42,19.42,0,0,1-4.8,2.09l-1,4.76-8,.14-1.16-4.72a19.51,19.51,0,0,1-4.88-1.92l-4.06,2.67-5.78-5.59,2.52-4.15a19.49,19.49,0,0,1-2.09-4.81l-4.76-1-.14-8,4.72-1.15a19.21,19.21,0,0,1,1.92-4.88L349,387.56l5.59-5.79,4.15,2.52ZM363.05,395a8.62,8.62,0,1,0,12.19-.22A8.61,8.61,0,0,0,363.05,395Z" style="fill:#ebebeb"></path><path d="M363.05,395a6.42,6.42,0,0,1,1.6-1.41,8.7,8.7,0,0,1,9.45,0,8.78,8.78,0,0,1,3.1,3.48,8.91,8.91,0,0,1,.83,5.08,8.79,8.79,0,0,1-7.28,7.54,8.2,8.2,0,0,1-2.66,0,8,8,0,0,1-2.44-.7,8.66,8.66,0,0,1-3.59-3,8.85,8.85,0,0,1-1.5-3.78,8.57,8.57,0,0,1,1.14-5.67,6.42,6.42,0,0,1,1.35-1.65,19.35,19.35,0,0,0-1.19,1.75,8.61,8.61,0,0,0-.95,5.52,8.43,8.43,0,0,0,4.92,6.38,8.21,8.21,0,0,0,2.33.65,7.85,7.85,0,0,0,2.51-.06,8.34,8.34,0,0,0,6.88-7.13,7.82,7.82,0,0,0,0-2.51,8.13,8.13,0,0,0-.73-2.3,8.53,8.53,0,0,0-12-3.55A18.78,18.78,0,0,0,363.05,395Z" style="fill:#ebebeb"></path><path d="M358.76,384.29l-.27-.14-.79-.46-3.13-1.85h.09l-5.55,5.81,0-.15,2.68,4.05.05.07-.05.08a19.51,19.51,0,0,0-1.88,4.84l0,.1-.09,0-4.72,1.17.13-.17c.06,2.53.11,5.22.16,8l-.15-.19,4.76,1,.12,0,0,.11a19.93,19.93,0,0,0,2.08,4.76l.07.11-.07.11-2.51,4.16,0-.28,5.79,5.58-.28,0,4.06-2.66.11-.08.13.07a19.68,19.68,0,0,0,4.82,1.89l.14,0,0,.14c.37,1.48.76,3.09,1.16,4.72l-.24-.18,8-.15-.23.2,1-4.76,0-.14.14,0A19.3,19.3,0,0,0,379.1,418h0l.13-.07.12.07,4.16,2.52-.31,0,5.59-5.78,0,.3q-1.35-2.06-2.66-4.06l-.08-.12.07-.13A19.66,19.66,0,0,0,388,406l0-.14.14,0,4.72-1.16-.18.24c0-2.75-.09-5.43-.13-8l.18.22L388,396l-.13,0,0-.13a20,20,0,0,0-2.06-4.75l-.07-.12.07-.11,2.52-4.14,0,.25-5.78-5.6.24,0c-1.43.93-2.78,1.8-4.07,2.65l-.09.06-.09,0a19.68,19.68,0,0,0-4.83-1.92l-.1,0,0-.1c-.42-1.72-.79-3.26-1.14-4.72l.14.11-8,.1.11-.08c-.41,1.89-.74,3.45-1,4.75v0l-.05,0a20.09,20.09,0,0,0-3.67,1.41l-.87.45-.29.15a1.64,1.64,0,0,1,.27-.18,8.77,8.77,0,0,1,.85-.49,19.38,19.38,0,0,1,3.67-1.5l-.06.06c.26-1.3.58-2.86,1-4.76l0-.09h.09l8-.17h.11l0,.12c.36,1.46.75,3,1.17,4.71l-.12-.12a19.81,19.81,0,0,1,4.93,1.93h-.19l4.06-2.67.13-.08.11.1,5.79,5.57.12.12-.09.14-2.51,4.16v-.23a19.79,19.79,0,0,1,2.12,4.86l-.17-.15,4.76,1,.18,0v.18q.08,3.92.15,8V405l-.19.05-4.71,1.16.17-.17a20.15,20.15,0,0,1-1.94,4.93v-.25l2.67,4.06.1.17-.13.14-5.58,5.78-.14.15-.17-.11-4.15-2.51h.25a20.13,20.13,0,0,1-4.87,2.11l.18-.19-1,4.76,0,.19h-.2l-8,.13h-.19l0-.19c-.39-1.63-.79-3.24-1.15-4.72l.17.17a20.19,20.19,0,0,1-4.93-1.94h.24l-4.06,2.66-.16.1-.13-.13-5.77-5.59-.13-.12.09-.15,2.52-4.15v.22a20.6,20.6,0,0,1-2.1-4.86l.16.14-4.76-1-.15,0v-.16q-.08-4.23-.13-8v-.15l.14,0,4.72-1.14-.12.12a19.66,19.66,0,0,1,1.95-4.91v.15l-2.65-4.08-.06-.08.07-.07,5.62-5.75.05-.05,0,0,3.06,1.91.79.5A1.8,1.8,0,0,1,358.76,384.29Z" style="fill:#ebebeb"></path><path d="M45,346.22a19.87,19.87,0,0,1,4.81-2.09l1-4.76,8-.14L60,344a20.07,20.07,0,0,1,4.87,1.92l4.07-2.66,5.78,5.58L72.15,353a19.59,19.59,0,0,1,2.09,4.8l4.76,1,.14,8-4.72,1.16a19.74,19.74,0,0,1-1.92,4.88l2.66,4.06-5.58,5.78-4.15-2.51a19.84,19.84,0,0,1-4.81,2.08l-1,4.76-8,.14-1.16-4.72a19.29,19.29,0,0,1-4.87-1.92l-4.07,2.67-5.78-5.59,2.52-4.15a19.49,19.49,0,0,1-2.09-4.81l-4.76-1-.14-8L36,358.43a19.21,19.21,0,0,1,1.92-4.88l-2.66-4.06,5.58-5.79L45,346.22Zm4.29,10.71a8.62,8.62,0,1,0,12.19-.21A8.62,8.62,0,0,0,49.24,356.93Z" style="fill:#ebebeb"></path><path d="M49.24,356.93a6.42,6.42,0,0,1,1.6-1.41,8.72,8.72,0,0,1,9.46,0A8.83,8.83,0,0,1,63.39,359a8.27,8.27,0,0,1,.78,2.42,8.17,8.17,0,0,1,0,2.66,8.79,8.79,0,0,1-7.28,7.54,8.43,8.43,0,0,1-2.65.05,8.56,8.56,0,0,1-2.45-.7,8.79,8.79,0,0,1-5.09-6.75,8.57,8.57,0,0,1,1.14-5.67,6.42,6.42,0,0,1,1.35-1.65s-.52.57-1.19,1.75a8.62,8.62,0,0,0-.95,5.52A8.43,8.43,0,0,0,52,370.58a8.36,8.36,0,0,0,4.84.59A8.34,8.34,0,0,0,63.74,364a7.82,7.82,0,0,0,0-2.51,8.13,8.13,0,0,0-.73-2.3,8.5,8.5,0,0,0-2.91-3.34,8.38,8.38,0,0,0-3.64-1.35A8.58,8.58,0,0,0,51,355.68C49.79,356.39,49.28,357,49.24,356.93Z" style="fill:#ebebeb"></path><path d="M45,346.22l-.26-.14-.8-.46-3.13-1.85h.1l-5.55,5.81v-.15L38,353.47l0,.07,0,.08a19.45,19.45,0,0,0-1.89,4.85l0,.09-.09,0-4.72,1.17.14-.17c0,2.53.1,5.22.16,8l-.16-.19,4.76,1,.12,0,0,.12a19.59,19.59,0,0,0,2.07,4.75l.07.11-.07.11-2.51,4.16,0-.28L41.65,383l-.28,0,4.06-2.66.12-.08.12.07a19.68,19.68,0,0,0,4.82,1.89l.14,0,0,.15c.36,1.47.75,3.09,1.16,4.71l-.24-.18,8-.14-.23.19,1-4.76,0-.14.14,0a19.65,19.65,0,0,0,4.74-2.06h0l.13-.07.12.07,4.16,2.52-.31,0L75,376.71l0,.3c-.9-1.36-1.78-2.72-2.66-4.06l-.08-.12.07-.13a19.66,19.66,0,0,0,1.9-4.82l0-.14.14,0,4.72-1.16-.18.24c0-2.75-.09-5.43-.13-8L79,359l-4.75-1-.14,0,0-.13A19.62,19.62,0,0,0,72,353.06L71.9,353l.07-.11q1.29-2.14,2.52-4.15l0,.25-5.78-5.59.24,0L64.92,346l-.09.06-.09-.05a19.68,19.68,0,0,0-4.83-1.92l-.1,0,0-.1c-.42-1.71-.79-3.26-1.14-4.72l.14.11-8,.11.11-.09c-.41,1.89-.74,3.45-1,4.75v.05h0a20.09,20.09,0,0,0-3.67,1.41l-.87.45a1.36,1.36,0,0,1-.29.15l.27-.18c.19-.11.46-.28.85-.49a18.84,18.84,0,0,1,3.67-1.49l-.06.06c.26-1.3.58-2.87,1-4.77l0-.08h.09l8-.17h.11l0,.12c.36,1.46.75,3,1.17,4.71L60,343.8a19.39,19.39,0,0,1,4.93,1.92h-.18l4-2.67.13-.08.11.1,5.79,5.58.12.11-.08.14-2.52,4.16v-.22a19.55,19.55,0,0,1,2.12,4.85l-.16-.15,4.75,1,.18,0v.18q.06,3.92.14,8V367l-.18,0-4.72,1.16.17-.17a19.61,19.61,0,0,1-1.94,4.93v-.25l2.67,4.07.11.16-.14.14-5.58,5.78-.14.15-.17-.11-4.15-2.51h.25a20.24,20.24,0,0,1-4.86,2.11l.17-.19-1,4.76,0,.19h-.2l-8,.13H51.4l0-.19c-.39-1.63-.79-3.24-1.15-4.72l.18.17a19.72,19.72,0,0,1-4.94-1.94h.24l-4.06,2.66-.15.1-.14-.13-5.77-5.59-.13-.12.09-.15,2.53-4.15v.22a20.24,20.24,0,0,1-2.11-4.86l.16.14-4.76-1-.15,0v-.15q-.07-4.25-.13-8v-.14l.14,0,4.72-1.14-.12.12a20.05,20.05,0,0,1,2-4.91v.15l-2.65-4.07,0-.09.07-.07,5.61-5.75,0,0,.05,0,3.06,1.9.79.5A1.8,1.8,0,0,1,45,346.22Z" style="fill:#ebebeb"></path><path d="M658.13,248.41a19.49,19.49,0,0,1,4.81-2.09l1-4.76,8-.14,1.15,4.72a19.21,19.21,0,0,1,4.88,1.92l4.07-2.67,5.78,5.59-2.52,4.15a19.49,19.49,0,0,1,2.09,4.81l4.76,1,.14,8-4.72,1.15a20,20,0,0,1-1.92,4.88l2.66,4.06-5.58,5.79-4.15-2.52a19.87,19.87,0,0,1-4.81,2.09l-1,4.76-8,.14-1.16-4.72a20.07,20.07,0,0,1-4.87-1.92l-4.07,2.66-5.78-5.58,2.52-4.16a19.42,19.42,0,0,1-2.09-4.8l-4.76-1-.14-8,4.72-1.16a19.51,19.51,0,0,1,1.92-4.88l-2.66-4.06,5.58-5.78,4.15,2.52Zm4.29,10.7a8.63,8.63,0,1,0,12.19-.21A8.64,8.64,0,0,0,662.42,259.11Z" style="fill:#ebebeb"></path><path d="M662.42,259.11a6.54,6.54,0,0,1,1.6-1.4,8.73,8.73,0,0,1,9.45,0,8.88,8.88,0,0,1,3.1,3.49,8.9,8.9,0,0,1,.83,5.07,8.79,8.79,0,0,1-7.28,7.55,8.86,8.86,0,0,1-5.1-.66,8.79,8.79,0,0,1-5.09-6.74,8.57,8.57,0,0,1,1.14-5.67,6.63,6.63,0,0,1,1.35-1.66s-.52.57-1.19,1.75a8.65,8.65,0,0,0-1,5.53,8.56,8.56,0,0,0,1.48,3.59,8.43,8.43,0,0,0,3.44,2.78,8.47,8.47,0,0,0,4.84.6,8.37,8.37,0,0,0,6.88-7.13,7.82,7.82,0,0,0,0-2.51,7.93,7.93,0,0,0-.73-2.3,8.46,8.46,0,0,0-6.55-4.7,8.57,8.57,0,0,0-5.48,1.15C663,258.57,662.46,259.16,662.42,259.11Z" style="fill:#ebebeb"></path><path d="M658.13,248.41a2.69,2.69,0,0,1-.27-.15l-.79-.46L653.94,246l.1,0-5.55,5.82v-.16l2.68,4.05.05.08-.05.08a19.75,19.75,0,0,0-1.88,4.84l0,.1-.09,0-4.72,1.17.14-.17q.07,3.8.16,8l-.16-.18,4.76,1,.12,0,0,.12a20,20,0,0,0,2.08,4.75l.07.11-.07.12c-.78,1.28-1.64,2.7-2.51,4.15l0-.27,5.79,5.58-.28,0,4.06-2.67.12-.08.12.07a19.7,19.7,0,0,0,4.82,1.9l.14,0,0,.14c.37,1.48.76,3.09,1.16,4.72l-.24-.18,8-.15-.23.2c.31-1.51.65-3.13,1-4.76l0-.15.14,0a19.65,19.65,0,0,0,4.74-2.06h0l.13-.08.12.08,4.16,2.52-.31,0,5.59-5.79,0,.31c-.9-1.37-1.79-2.72-2.66-4.07l-.08-.12.07-.13a19.59,19.59,0,0,0,1.9-4.81l0-.14.14,0,4.72-1.15-.18.23c0-2.74-.09-5.42-.13-8l.18.22-4.76-1-.13,0,0-.13a20.1,20.1,0,0,0-2.06-4.76l-.07-.11.07-.11,2.52-4.15,0,.26-5.78-5.6.24,0-4.07,2.65-.09.06-.09,0a19.63,19.63,0,0,0-4.83-1.91l-.1,0,0-.09c-.42-1.72-.79-3.27-1.14-4.73l.14.11-8,.11.11-.09c-.41,1.9-.74,3.46-1,4.75v0h0a20,20,0,0,0-3.67,1.42l-.87.45a2.55,2.55,0,0,1-.29.15l.27-.19c.18-.11.46-.28.85-.48a18.73,18.73,0,0,1,3.67-1.5l-.06.06c.26-1.3.58-2.86,1-4.76l0-.09h.09l8-.18h.11l0,.11c.36,1.46.75,3,1.17,4.72l-.12-.12a19.77,19.77,0,0,1,4.93,1.92h-.18l4.05-2.67.13-.09.11.11,5.79,5.57.12.11-.09.15-2.51,4.15V255a19.62,19.62,0,0,1,2.12,4.86l-.17-.16,4.76,1,.18,0v.19q.08,3.92.15,8v.19l-.19.05-4.71,1.16.17-.18a19.83,19.83,0,0,1-1.94,4.94v-.25l2.67,4.06.1.16-.13.14L682.94,285l-.14.14-.17-.1-4.15-2.52h.25a19.89,19.89,0,0,1-4.86,2.12l.17-.19c-.34,1.63-.68,3.25-1,4.76l0,.19h-.2l-8,.14h-.19l-.05-.19c-.39-1.62-.79-3.24-1.15-4.72l.18.18a19.73,19.73,0,0,1-4.94-1.95h.24l-4.06,2.65-.16.11-.13-.13-5.77-5.59-.13-.13.09-.15,2.52-4.15v.22a20.25,20.25,0,0,1-2.1-4.86l.16.15-4.76-1-.15,0v-.16c0-2.82-.09-5.51-.13-8v-.14l.14,0,4.72-1.15-.12.12a20,20,0,0,1,1.95-4.91v.15c-1-1.46-1.85-2.84-2.65-4.07l0-.08.06-.08,5.62-5.75.05,0,0,0,3.06,1.9c.33.22.59.38.79.5Z" style="fill:#ebebeb"></path><rect x="86.04" y="283.6" width="65.82" height="65.82" rx="10.38" style="fill:#e0e0e0"></rect><path d="M121.8,316.18a8.09,8.09,0,0,0,4.82-7.48,7.6,7.6,0,1,0-15.16-.07,8.06,8.06,0,0,0,4.83,7.55c-11.67,1.75-11.14,14.43-11.14,14.43l27.59.13S133.37,317.92,121.8,316.18Z" style="fill:#fff"></path><rect x="492.55" y="408.7" width="70.55" height="68.51" rx="8.1" style="fill:#fff"></rect><path d="M555,477.21a9.67,9.67,0,0,0,2.62-.5,7.88,7.88,0,0,0,2.75-1.65,8,8,0,0,0,2.3-3.67c.5-1.59.27-3.47.31-5.5s0-4.25,0-6.62c0-4.75,0-10.16,0-16.13s0-12.52,0-19.55c0-1.76,0-3.54,0-5.36a17.23,17.23,0,0,0-.11-2.7,8,8,0,0,0-.88-2.55,7.93,7.93,0,0,0-4.11-3.53c-1.74-.73-3.72-.46-5.7-.51l-51.41,0a7.89,7.89,0,0,0-5.84,2.61,8.1,8.1,0,0,0-2,6q0,6.66,0,13.12c0,8.6,0,16.89,0,24.8q0,5.92,0,11.54c0,.93,0,1.89,0,2.77a7.9,7.9,0,0,0,4.2,6.29,7.61,7.61,0,0,0,2.4.79,16.26,16.26,0,0,0,2.53.11h14.37l28.3.09,7.7.05,2,0,.68,0-.68,0-2,0-7.7.05-28.3.08-9.38,0h-5a16.41,16.41,0,0,1-2.6-.11,7.92,7.92,0,0,1-2.53-.83,8.35,8.35,0,0,1-3.73-3.92,8.7,8.7,0,0,1-.72-2.71c-.07-1,0-1.86,0-2.81,0-3.74,0-7.59,0-11.54,0-7.91,0-16.2,0-24.8V417.58a9.58,9.58,0,0,1,.42-3.38,8.4,8.4,0,0,1,8-5.76l51.41,0H555a8.56,8.56,0,0,1,2.93.55,8.23,8.23,0,0,1,5.26,6.45,16.23,16.23,0,0,1,.12,2.77c0,1.82,0,3.6,0,5.36,0,7,0,13.57,0,19.55s0,11.38,0,16.13c0,2.37,0,4.58,0,6.62s.16,3.91-.37,5.55a8.15,8.15,0,0,1-5.2,5.37,7.84,7.84,0,0,1-2,.39Z" style="fill:#e0e0e0"></path><path d="M543.9,455a15.72,15.72,0,0,0,1.72-.08A9,9,0,0,0,550,453a8.59,8.59,0,0,0,2.2-2.62,7.88,7.88,0,0,0,.73-1.81,8.21,8.21,0,0,0,.23-2.07,8.94,8.94,0,0,0-.32-2.21,9.83,9.83,0,0,0-.94-2.17,8.47,8.47,0,0,0-3.7-3.39l-.08,0v-.09a6.11,6.11,0,0,0-10.45-4.55l-.2.2-.06-.28a11.82,11.82,0,0,0-7.24-8.29,10.76,10.76,0,0,0-2.93-.73,4.74,4.74,0,0,0-.75-.06c-.25,0-.5,0-.75,0a9.07,9.07,0,0,0-1.47.17,11.1,11.1,0,0,0-5.15,2.47,12.81,12.81,0,0,0-3.3,4.38,11.14,11.14,0,0,0-1,5.05v.19l-.19,0a8.53,8.53,0,0,0-5.7.67,10.49,10.49,0,0,0-2.25,1.53,9.54,9.54,0,0,0-1.63,2,8.55,8.55,0,0,0-.9,2.24,7.8,7.8,0,0,0-.16,2.24,8.86,8.86,0,0,0,1.19,3.79,9.07,9.07,0,0,0,4.07,3.77,13.45,13.45,0,0,0,1.91.63l-.13,0-.38-.07a3.34,3.34,0,0,1-.62-.16,6.07,6.07,0,0,1-.82-.3,9,9,0,0,1-4.18-3.77,8.93,8.93,0,0,1-1.24-3.85,7.6,7.6,0,0,1,.15-2.31,8.48,8.48,0,0,1,.91-2.31,10,10,0,0,1,1.66-2.06,10.44,10.44,0,0,1,2.31-1.57,8.72,8.72,0,0,1,5.88-.72l-.18.15a11.58,11.58,0,0,1,1-5.19,12.84,12.84,0,0,1,3.37-4.49,11.38,11.38,0,0,1,5.3-2.56,12.45,12.45,0,0,1,1.51-.17c.26,0,.52,0,.77,0a4.9,4.9,0,0,1,.77.06,11.65,11.65,0,0,1,3,.75,12.13,12.13,0,0,1,7.44,8.53l-.27-.08a6.39,6.39,0,0,1,10.94,4.78l-.08-.13a8.79,8.79,0,0,1,3.81,3.51,10.35,10.35,0,0,1,.94,2.24,9.43,9.43,0,0,1,.33,2.26,9.29,9.29,0,0,1-.26,2.14,8.17,8.17,0,0,1-.76,1.84,8.67,8.67,0,0,1-2.27,2.65,8.79,8.79,0,0,1-4.47,1.87,6.65,6.65,0,0,1-1.29,0Z" style="fill:#e0e0e0"></path><path d="M544.73,455.9l-.47,0c-.3,0-.47-.05-.47-.05a.8.8,0,0,1-.45-1.38.92.92,0,0,1,.76-.23,9.52,9.52,0,0,0,1.42-.07,8.15,8.15,0,0,0,4-1.74,7.79,7.79,0,0,0,2-2.37,7.46,7.46,0,0,0,.66-1.65,8.31,8.31,0,0,0,.21-1.84,9.09,9.09,0,0,0-.3-2,8.93,8.93,0,0,0-.86-2,7.65,7.65,0,0,0-3.34-3.07.92.92,0,0,1-.55-.81,5.52,5.52,0,0,0-2.94-5.06,5.45,5.45,0,0,0-6.12,1l-.2.2a.81.81,0,0,1-1.37-.4l-.06-.28a11,11,0,0,0-6.75-7.7,10,10,0,0,0-2.71-.69,5.73,5.73,0,0,0-.67-.05h-.72l-.36,0a6,6,0,0,0-.95.11,10.33,10.33,0,0,0-4.82,2.32,11.76,11.76,0,0,0-3.08,4.08,10.35,10.35,0,0,0-.89,4.68v.19a.87.87,0,0,1-.29.67.84.84,0,0,1-.72.16l-.18-.05a7.68,7.68,0,0,0-5.15.62,9.55,9.55,0,0,0-2.07,1.4,8.79,8.79,0,0,0-1.48,1.82,7.34,7.34,0,0,0-.8,2,6.66,6.66,0,0,0-.14,2,8.14,8.14,0,0,0,1.07,3.46,8.34,8.34,0,0,0,3.72,3.44,7.24,7.24,0,0,0,1.57.52,1,1,0,0,1,.69.42.78.78,0,0,1,.09.63.94.94,0,0,1-1.05.58l-.39-.08a3.75,3.75,0,0,1-.75-.19l-.18-.06a4.09,4.09,0,0,1-.72-.28,10.12,10.12,0,0,1-5.87-8.28,8.62,8.62,0,0,1,.16-2.52,9.56,9.56,0,0,1,1-2.56,10.07,10.07,0,0,1,4.32-4,9.7,9.7,0,0,1,5.25-1,12.53,12.53,0,0,1,1-4.38,13.76,13.76,0,0,1,3.58-4.78,12.16,12.16,0,0,1,5.69-2.73,7.25,7.25,0,0,1,1.2-.16l.38,0h.85a5.26,5.26,0,0,1,.89.07,11.75,11.75,0,0,1,3.17.8,13.13,13.13,0,0,1,7.53,7.66,7.18,7.18,0,0,1,11.1,5.73,9.7,9.7,0,0,1,3.61,3.56,10.56,10.56,0,0,1,1,2.42,10.82,10.82,0,0,1,.36,2.47,9.63,9.63,0,0,1-.29,2.35,8.83,8.83,0,0,1-.84,2.07,9.39,9.39,0,0,1-2.48,2.87,9.67,9.67,0,0,1-4.87,2A9.32,9.32,0,0,1,544.73,455.9Z" style="fill:#e0e0e0"></path><path d="M524.69,449.23a32.21,32.21,0,0,1-2.25,4,31.43,31.43,0,0,1-2.52,3.88,34.74,34.74,0,0,1,2.25-4.05A35.6,35.6,0,0,1,524.69,449.23Z" style="fill:#e0e0e0"></path><path d="M520,458a1,1,0,0,1-.47-.18c-.77-.47-.77-.62,2-5.16,2.47-4.12,2.66-4.17,3-4.26a.81.81,0,0,1,.61.1h0a.82.82,0,0,1,.37.5c.09.35.13.54-2.34,4.66C521,457.19,520.48,458,520,458Z" style="fill:#e0e0e0"></path><path d="M532.16,449.23a33.83,33.83,0,0,1-2.25,4,31.43,31.43,0,0,1-2.52,3.88,34.74,34.74,0,0,1,2.25-4.05A32.41,32.41,0,0,1,532.16,449.23Z" style="fill:#e0e0e0"></path><path d="M527.4,458a.82.82,0,0,1-.43-.12c-.77-.46-.76-.6,2-5.15,2.48-4.12,2.67-4.17,3-4.26a.85.85,0,0,1,.62.1h0c.77.47.76.61-2,5.16-2.48,4.11-2.67,4.16-3,4.25Z" style="fill:#e0e0e0"></path><path d="M539.63,449.23a33.83,33.83,0,0,1-2.25,4,34.43,34.43,0,0,1-2.52,3.88,33,33,0,0,1,2.25-4.05A32.41,32.41,0,0,1,539.63,449.23Z" style="fill:#e0e0e0"></path><path d="M534.92,458a1,1,0,0,1-.47-.18c-.78-.47-.77-.62,2-5.16,2.48-4.12,2.67-4.17,3-4.26a.84.84,0,0,1,.62.1h0a.78.78,0,0,1,.37.5c.09.35.14.54-2.34,4.66C536,457.19,535.41,458,534.92,458Z" style="fill:#e0e0e0"></path><path d="M516.05,460.35a33.83,33.83,0,0,1-2.25,4,32.86,32.86,0,0,1-2.52,3.88,69.43,69.43,0,0,1,4.77-7.93Z" style="fill:#e0e0e0"></path><path d="M511.29,469.09a.92.92,0,0,1-.43-.11.85.85,0,0,1-.37-.5c-.09-.35-.13-.54,2.34-4.66,2.73-4.54,2.85-4.62,3.63-4.16h0c.76.47.76.61-2,5.16-2.47,4.12-2.66,4.16-3,4.25A.62.62,0,0,1,511.29,469.09Z" style="fill:#e0e0e0"></path><path d="M523.51,460.35a32.85,32.85,0,0,1-2.24,4,34.43,34.43,0,0,1-2.52,3.88,34.07,34.07,0,0,1,2.24-4A36.41,36.41,0,0,1,523.51,460.35Z" style="fill:#e0e0e0"></path><path d="M518.75,469.09a.91.91,0,0,1-.42-.11.85.85,0,0,1-.37-.5c-.09-.35-.14-.54,2.34-4.66,2.73-4.55,2.86-4.62,3.63-4.16h0c.76.46.75.61-2,5.15-2.47,4.12-2.67,4.16-3,4.25A.65.65,0,0,1,518.75,469.09Z" style="fill:#e0e0e0"></path><path d="M531,460.35a32.21,32.21,0,0,1-2.25,4,31.43,31.43,0,0,1-2.52,3.88,35.13,35.13,0,0,1,2.25-4A36.41,36.41,0,0,1,531,460.35Z" style="fill:#e0e0e0"></path><path d="M526.22,469.09a.92.92,0,0,1-.43-.11.89.89,0,0,1-.37-.5c-.08-.35-.13-.54,2.35-4.66,2.73-4.54,2.85-4.62,3.62-4.16h0c.77.47.76.61-2,5.16-2.48,4.12-2.67,4.16-3,4.25A.58.58,0,0,1,526.22,469.09Z" style="fill:#e0e0e0"></path><path d="M538.78,460.52a32.21,32.21,0,0,1-2.25,4.05,31.43,31.43,0,0,1-2.52,3.88,35.13,35.13,0,0,1,2.25-4A34.67,34.67,0,0,1,538.78,460.52Z" style="fill:#e0e0e0"></path><path d="M534.07,469.33a.93.93,0,0,1-.47-.18c-.78-.47-.77-.61,2-5.16,2.47-4.12,2.66-4.17,3-4.25a.81.81,0,0,1,.61.09h0a.82.82,0,0,1,.37.5c.09.35.13.54-2.34,4.66C535.13,468.48,534.57,469.33,534.07,469.33Z" style="fill:#e0e0e0"></path></g><g id="freepik--Location--inject-127"><rect x="523.9" y="28.51" width="72.66" height="70.56" rx="8.1" style="fill:#fff"></rect><rect x="523.9" y="28.51" width="72.66" height="70.56" rx="8.1" style="fill:#C4C4C6"></rect><path d="M579.28,58.76a19.06,19.06,0,1,0-35.48,9.62h0l.05.08c.73,1.23,1.65,2.11,2.57,3.4l11.07,14.66a3.44,3.44,0,0,0,5.49,0L573.85,72.1a42,42,0,0,0,2.77-3.66l0-.06h0A18.92,18.92,0,0,0,579.28,58.76Zm-19,8.29a8.39,8.39,0,1,1,8.38-8.38A8.38,8.38,0,0,1,560.23,67.05Z" style="fill:#fff"></path></g><g id="freepik--Text--inject-127"><rect x="581.89" y="134.39" width="96.61" height="93.82" rx="8.1" style="fill:#fff"></rect><path d="M670.4,228.21a8.72,8.72,0,0,0,3.58-.89,8.16,8.16,0,0,0,3.25-3,8,8,0,0,0,1-2.65,16.33,16.33,0,0,0,.14-3.26c0-9.29,0-22.72-.08-39.32,0-8.3,0-17.39,0-27.15,0-2.44,0-4.92,0-7.44a17.25,17.25,0,0,0-.2-3.75,7.87,7.87,0,0,0-1.66-3.33,8.05,8.05,0,0,0-3.06-2.22,9.07,9.07,0,0,0-3.82-.57h-8.13l-71.41,0a7.86,7.86,0,0,0-7.21,4.75,8.27,8.27,0,0,0-.58,2.18,21.79,21.79,0,0,0-.06,2.3v22.86c0,11.95,0,23.47,0,34.45q0,8.24,0,16v1.94a14.9,14.9,0,0,0,.06,1.9,8.12,8.12,0,0,0,1.28,3.44,7.85,7.85,0,0,0,6.07,3.46l27.14.06,39.32.08,10.69,0,2.78,0c.62,0,.94,0,.94,0l-.94,0-2.78,0-10.69,0-39.32.09H589.5a8.3,8.3,0,0,1-6.41-3.64,8.56,8.56,0,0,1-1.36-3.64,18.34,18.34,0,0,1-.07-2v-1.94q0-7.8,0-16c0-11,0-22.5,0-34.45q0-9,0-18.22v-4.64a23.54,23.54,0,0,1,.06-2.36,9,9,0,0,1,.62-2.33,8.4,8.4,0,0,1,7.69-5.06l71.41,0h8.13a9.57,9.57,0,0,1,4,.61,8.3,8.3,0,0,1,5,5.88,17.33,17.33,0,0,1,.21,3.85c0,2.52,0,5,0,7.44,0,9.76,0,18.85,0,27.15,0,16.6-.06,30-.08,39.32a16.85,16.85,0,0,1-.17,3.3,8.2,8.2,0,0,1-4.42,5.7,8,8,0,0,1-2.67.77A7.53,7.53,0,0,1,670.4,228.21Z" style="fill:#263238"></path><path d="M603.26,156.5h52.68l.09,17.64H653.5q-1.23-9.46-7.09-12.81c-2.19-1.23-5.47-1.9-9.82-2v46.09q0,4.83,1.68,6.42t7,1.58v2.22H614.11v-2.22q5.13,0,6.82-1.61c1.12-1.06,1.68-3.2,1.68-6.39V159.32q-6.4.17-9.82,2-6.28,3.43-7.09,12.81h-2.52Z" style="fill:#263238"></path></g><g id="freepik--Video--inject-127"><rect x="612.49" y="307.47" width="88.26" height="85.71" rx="8.1" style="fill:#fff"></rect><path d="M692.65,393.18a9.11,9.11,0,0,0,3.28-.75,8.12,8.12,0,0,0,4.72-7.76c0-8.46,0-20.69-.08-35.79,0-7.56,0-15.83,0-24.72,0-2.22,0-4.48,0-6.77a17.67,17.67,0,0,0-.16-3.42,8.16,8.16,0,0,0-1.4-3.09,7.84,7.84,0,0,0-6-3.16c-2.41,0-4.89,0-7.39,0l-65,0a7.89,7.89,0,0,0-6.84,4c-1.46,2.42-.89,5.39-1,8.18V336.5c0,10.88,0,21.36,0,31.35q0,7.5,0,14.6c0,1.18-.05,2.39,0,3.5a7.9,7.9,0,0,0,6.3,6.86,17.64,17.64,0,0,0,3.26.16h21.41l35.79.09,9.73.05,2.53,0,.86,0s-.29,0-.86,0l-2.53,0-9.73,0-35.79.08-11.86,0h-9.55a18,18,0,0,1-3.34-.15,8.36,8.36,0,0,1-6.67-7.24c-.1-1.21,0-2.35-.06-3.55q0-7.09,0-14.6c0-10,0-20.47,0-31.35,0-5.43,0-11,0-16.58v-4.23a8.67,8.67,0,0,1,1.07-4.21,8.41,8.41,0,0,1,7.3-4.27l65,0c2.51,0,5,0,7.41,0a8.38,8.38,0,0,1,7.8,6.63,18.15,18.15,0,0,1,.17,3.51q0,3.44,0,6.77c0,8.89,0,17.16,0,24.72,0,15.1-.06,27.33-.08,35.79a8.34,8.34,0,0,1-1.67,5.31,8.12,8.12,0,0,1-3.22,2.54,8.41,8.41,0,0,1-2.45.64Z" style="fill:#263238"></path><circle cx="658.07" cy="350.32" r="30.37" transform="translate(-83.54 274.18) rotate(-22.17)" style="fill:#C4C4C6"></circle><path d="M677.59,349.22a1.74,1.74,0,0,1,0,3l-13.36,8.67-13.56,8.16c-1.33.17-2.8-.64-2.82-2l-.29-15.82-.29-15.82a1.74,1.74,0,0,1,2.58-1.55l13.85,7.66Z" style="fill:#fff"></path></g><g id="freepik--Phone--inject-127"><rect x="92.35" y="373.48" width="74.06" height="74.06" rx="15.72" style="fill:#C4C4C6"></rect><path d="M142.46,415c-1.46-.86-3.35-1.84-5.06-1.13-1.31.53-2.15,2.59-3,3.64a1.26,1.26,0,0,1-1.63.35A22.86,22.86,0,0,1,121.34,408a1.4,1.4,0,0,1,.17-1.91,7.68,7.68,0,0,0,2.08-3.37,7.37,7.37,0,0,0-.93-4c-.69-1.49-1.46-3.6-2.94-4.44a4,4,0,0,0-4.39.65,8.9,8.9,0,0,0-3.08,7,9.8,9.8,0,0,0,.28,2.23,18.42,18.42,0,0,0,2.14,4.95c.69,1.17,1.44,2.31,2.24,3.41a34.69,34.69,0,0,0,9.72,9,29.52,29.52,0,0,0,6.06,2.88c2.37.79,4.49,1.6,7.05,1.12a8.55,8.55,0,0,0,6.4-4.76,4.16,4.16,0,0,0,.3-2.43C146.07,416.77,143.81,415.77,142.46,415Z" style="fill:#fff;fill-rule:evenodd"></path></g><g id="freepik--Notification--inject-127"><rect x="43.7" y="176.76" width="95.5" height="84.18" rx="8.1" style="fill:#fff"></rect><path d="M131.1,261a8.85,8.85,0,0,0,3.38-.81,8,8,0,0,0,3.18-2.69A8.48,8.48,0,0,0,139.1,252c0-8.75,0-21.39-.08-37,0-7.82,0-16.38,0-25.56v-3.48a10.36,10.36,0,0,0-.36-3.43,7.94,7.94,0,0,0-4.64-5,9.13,9.13,0,0,0-3.54-.55H119l-67.23,0a7.91,7.91,0,0,0-7,4.27,8.21,8.21,0,0,0-.71,2,11.6,11.6,0,0,0-.16,2.14V207c0,11.24,0,22.09,0,32.42v11.4a19.94,19.94,0,0,0,.15,3.65,7.93,7.93,0,0,0,4.1,5.42,7.83,7.83,0,0,0,3.29.87c1.15,0,2.33,0,3.47,0l25.56,0,37,.09,10.06,0,2.62,0,.89,0-.89,0-2.62,0-10.06.05-37,.08-25.56,0c-1.15,0-2.3,0-3.48,0a8.49,8.49,0,0,1-3.48-.91,8.4,8.4,0,0,1-4.35-5.73,21.34,21.34,0,0,1-.17-3.74V247q0-3.77,0-7.65c0-10.33,0-21.18,0-32.42,0-5.62,0-11.35,0-17.15v-4.37a12.14,12.14,0,0,1,.17-2.24,8.94,8.94,0,0,1,.76-2.14,8.42,8.42,0,0,1,7.44-4.55l67.23,0h11.4a9.26,9.26,0,0,1,3.71.59,8.38,8.38,0,0,1,4.9,5.26,10.83,10.83,0,0,1,.37,3.56v3.48c0,9.18,0,17.74,0,25.56,0,15.62-.06,28.26-.08,37a8.64,8.64,0,0,1-1.51,5.55,8.09,8.09,0,0,1-5.8,3.38C131.4,261,131.1,261,131.1,261Z" style="fill:#263238"></path><circle cx="85.16" cy="239.64" r="9.12" transform="translate(-27.85 11.8) rotate(-6.82)" style="fill:#C4C4C6"></circle><path d="M52.17,227.76l65.87,24-2.63-6.87a18.86,18.86,0,0,1-.11-13.26l6.51-17.86A25.55,25.55,0,0,0,106.56,181h0a25.54,25.54,0,0,0-32.75,15.25l-6.27,17.18a18.94,18.94,0,0,1-7.79,9.6Z" style="fill:#C4C4C6"></path><rect x="98.87" y="176.47" width="14.62" height="6.88" rx="2.99" transform="translate(-99.22 218.03) rotate(-69.97)" style="fill:#C4C4C6"></rect><path d="M118,251.92c0,.14-14.74-5.09-32.8-11.68s-32.66-12.05-32.61-12.19,14.73,5.1,32.79,11.69S118.05,251.79,118,251.92Z" style="fill:#263238"></path><g style="opacity:0.30000000000000004"><path d="M76.5,236.78a15.19,15.19,0,0,0,7.21,6,14.61,14.61,0,0,0,9.91.27Z"></path></g><g style="opacity:0.2"><path d="M120.68,209.35A5.19,5.19,0,0,0,121,207a1.78,1.78,0,0,0-1.61-1.55h0a1.93,1.93,0,0,0-2.09,1.23c-1,2.82-3.34,9.05-4.85,12.7-1.24,3-2.87,6.11-5.69,7.74a10.94,10.94,0,0,1-7.33.95,40.72,40.72,0,0,1-7.16-2.33,39,39,0,0,0-9.18-2.51,4.78,4.78,0,0,0-2.52.2,1.85,1.85,0,0,0-1.13,2.05c.21.75,1,1.16,1.7,1.49,7.26,3.4,14.64,6.71,22.44,8.55a8.11,8.11,0,0,0,4.92.05c1.75-.73,2.8-2.49,3.67-4.17A131.59,131.59,0,0,0,120.68,209.35Z"></path></g><g style="opacity:0.2"><path d="M102.06,186.22c-.07-1.64-1.09-3.42-4.11-3.71a19,19,0,0,0-13,3.58,21.18,21.18,0,0,0-8.4,11.69c-.45,1.64-.68,3.51.26,4.94,1.41,2.16,4.8,2.06,6.89.54s3.23-4,4.46-6.24,2.81-4.59,5.25-5.45c2-.68,4.23-.31,6-1.31A4.78,4.78,0,0,0,102.06,186.22Z" style="fill:#fff"></path></g><g style="opacity:0.2"><path d="M97.89,182.5H98Z" style="fill:#fff"></path></g><path d="M118.94,190.43c-.08.06-1-1.3-2.86-3.12a26.36,26.36,0,0,0-3.54-2.9,31.18,31.18,0,0,0-4.92-2.68,30.6,30.6,0,0,0-5.35-1.64,27.25,27.25,0,0,0-4.54-.51c-2.61-.07-4.23.23-4.24.12a5.29,5.29,0,0,1,1.12-.25,10.07,10.07,0,0,1,1.34-.16,13.85,13.85,0,0,1,1.78-.08,25.35,25.35,0,0,1,4.64.4,28.89,28.89,0,0,1,5.46,1.64,29.25,29.25,0,0,1,5,2.76,24.54,24.54,0,0,1,3.53,3,16.47,16.47,0,0,1,1.19,1.34,11.62,11.62,0,0,1,.81,1.07A4.78,4.78,0,0,1,118.94,190.43Z" style="fill:#263238"></path><path d="M70.62,207.55a6.6,6.6,0,0,1,.34-1.34c.26-.86.65-2.09,1.17-3.59a50.69,50.69,0,0,1,5.31-11.28,25.06,25.06,0,0,1,9.1-8.46,16.77,16.77,0,0,1,3.54-1.36,6.22,6.22,0,0,1,1.37-.25,28.9,28.9,0,0,0-4.73,1.94,25.85,25.85,0,0,0-8.84,8.42,57.06,57.06,0,0,0-5.4,11.12l-1.32,3.52A7.82,7.82,0,0,1,70.62,207.55Z" style="fill:#fff"></path><path d="M61.83,222.76c-.09-.13,1.81-1.45,3.6-3.62s2.76-4.26,2.91-4.19a11.12,11.12,0,0,1-2.51,4.53A11,11,0,0,1,61.83,222.76Z" style="fill:#fff"></path><path d="M83.64,246.86a2.77,2.77,0,0,1-1.51-.19,7,7,0,0,1-4.74-5.31,2.78,2.78,0,0,1,0-1.52,9,9,0,0,1,.39,1.43,7.74,7.74,0,0,0,4.51,5A10.75,10.75,0,0,1,83.64,246.86Z" style="fill:#fff"></path><path d="M107.4,173.5c.06.15-1.05.6-1.88,1.74a14.36,14.36,0,0,0-1.12,2.29,2.94,2.94,0,0,1,.7-2.61A3,3,0,0,1,107.4,173.5Z" style="fill:#fff"></path></g><g id="freepik--Cloud--inject-127"><rect x="310.82" y="28.51" width="59.95" height="59.95" rx="9.33" style="fill:#455a64"></rect><path d="M360.45,68.11a8.38,8.38,0,0,0-1.67-8.94,9.36,9.36,0,0,0-9.18-3,10.27,10.27,0,0,0-20.36,1.32,7.68,7.68,0,0,0-5.87,10.43Z" style="fill:#fff"></path></g><g id="freepik--Character--inject-127"><rect x="190.67" y="140.42" width="374.04" height="260.64" rx="11.63" style="fill:#263238"></rect><path d="M564.71,152.05s0-.27-.05-.81a9.81,9.81,0,0,0-.12-1,10.68,10.68,0,0,0-.31-1.37,11.58,11.58,0,0,0-8.91-8.17,17.91,17.91,0,0,0-3.64-.22h-8.42l-21,0-133.88.08-92.45,0-51.5,0H203.74a17.52,17.52,0,0,0-3.41.18,11,11,0,0,0-3.21,1.07,11.58,11.58,0,0,0-4.83,4.7,12.41,12.41,0,0,0-1.16,3.22,18,18,0,0,0-.22,3.46v21.34q0,14.35,0,29v59.86c0,40.67,0,82.76,0,125.88a11.34,11.34,0,0,0,9.26,11.2,20,20,0,0,0,4,.2H309.92l117.27,0,106.12,0h18.45a18.46,18.46,0,0,0,3-.13,11.32,11.32,0,0,0,9.63-9.69,21.58,21.58,0,0,0,.13-2.91v-8.74q0-23.14,0-44.36c0-56.52.06-102.26.08-133.87,0-15.81,0-28.08,0-36.4,0-4.16,0-7.33,0-9.47s0-3.22,0-3.22,0,1.09,0,3.22,0,5.31,0,9.47c0,8.32,0,20.59,0,36.4,0,31.61.05,77.35.09,133.87q0,21.19,0,44.36v5.81c0,1,0,1.95,0,2.93a21.08,21.08,0,0,1-.13,3,11.86,11.86,0,0,1-7,9.23,12.11,12.11,0,0,1-3,.83,20.77,20.77,0,0,1-3,.14H533.31l-106.12,0h-223a21.39,21.39,0,0,1-4.06-.21,11.89,11.89,0,0,1-9.68-11.72V263.51q0-30.49,0-59.86V153.29a18.47,18.47,0,0,1,.23-3.55,13.36,13.36,0,0,1,1.21-3.36,12.06,12.06,0,0,1,5-4.89,11,11,0,0,1,3.35-1.12,17.86,17.86,0,0,1,3.49-.19h92.18l92.45,0,133.88.08,21,0h8.42a19,19,0,0,1,3.67.23,12,12,0,0,1,3.12,1.11,11.85,11.85,0,0,1,4.11,3.59,11.63,11.63,0,0,1,1.7,3.58,8.92,8.92,0,0,1,.29,1.37,6,6,0,0,1,.11,1C564.71,151.78,564.71,152.05,564.71,152.05Z" style="fill:#263238"></path><path d="M545.91,260.74a10,10,0,1,1-10,10A10,10,0,0,1,545.91,260.74Z" style="fill:#455a64"></path><path d="M210.43,244v53.23a3.71,3.71,0,0,1-3.71,3.71h0a3.71,3.71,0,0,1-3.71-3.71V244a3.71,3.71,0,0,1,3.71-3.71h0A3.71,3.71,0,0,1,210.43,244Z" style="fill:#455a64"></path><rect x="217.35" y="148.86" width="312.37" height="244.2" style="fill:#fff"></rect><path d="M560.55,232.35c4.68-2.28,10-4.61,10-4.61l4.62-2.33a5.92,5.92,0,0,1,0,1,3.91,3.91,0,0,0,.25,1.93c.57,1.1,2.07,1.35,3.31,1.14a7.31,7.31,0,0,0,4.59-11.8,5.51,5.51,0,0,0-.26-2.11c-1.52-4.61-8.31-6.51-8.31-6.51l1.5-1s5.53-1.16,11.31,6.25a5.81,5.81,0,0,0,3.48,2.18,2.92,2.92,0,0,0,2.47-.49c1.76-1.45,1.19-3.07-2.36-7.75s-8.52-8-12.47-8a38.63,38.63,0,0,0-5.49.3s13-10.18,13.79-10.85c2.3-2,3.35-4.62,2.19-6.28-.75-1.06-2.48-1.85-5.23.35-2.38,1.9-29.28,18.29-29.28,18.29L543.22,210l-8.39,8.09,13.29,15,1.43.35A16.13,16.13,0,0,0,560.55,232.35Z" style="fill:#ffbf9d"></path><path d="M545.81,211.39c.72,1.64,2.82,2.23,4.61,2s3.43-1,5.2-1.41c5.27-1.06,10.78,2.13,16,.82.73-.18,1.56-.64,1.54-1.38s-.77-1.09-1.42-1.35l-16.48-6.7" style="fill:#ffbf9d"></path><path d="M555.25,203.37a6.8,6.8,0,0,1,1.86.54c1.17.41,2.85,1,4.92,1.83l7.25,2.83,2.09.83c.64.31,1.62.44,2.18,1.54a1.49,1.49,0,0,1-.4,1.62,3.16,3.16,0,0,1-1.28.69,11.47,11.47,0,0,1-2.6.36c-3.54.07-6.66-1-9.52-1.28a13.71,13.71,0,0,0-4,.06c-1.23.23-2.37.66-3.46,1A6.34,6.34,0,0,1,547,213c-1.1-.76-1.21-1.58-1.17-1.57a5.17,5.17,0,0,0,1.38,1.23,6.12,6.12,0,0,0,4.89,0c1-.32,2.16-.8,3.49-1.09a13.8,13.8,0,0,1,4.28-.16c3,.26,6.11,1.27,9.38,1.19a11.1,11.1,0,0,0,2.35-.31c.72-.2,1.23-.65,1-1s-.91-.72-1.62-1l-2.07-.86-7.17-3c-2-.88-3.68-1.6-4.8-2.13A7.22,7.22,0,0,1,555.25,203.37Z" style="fill:#ff9a6c"></path><path d="M574.58,209a7.35,7.35,0,0,1,3.17-1.13,5.62,5.62,0,0,1,3.43.93,14.36,14.36,0,0,1,3.3,3,23.17,23.17,0,0,0,3.24,3.37,7.64,7.64,0,0,0,3.53,1.61,3,3,0,0,0,2.49-.8c.43-.46.54-.79.51-.81s-.23.25-.68.62a2.77,2.77,0,0,1-2.26.53,7.44,7.44,0,0,1-3.21-1.62A25.18,25.18,0,0,1,585,211.4a14.29,14.29,0,0,0-3.49-3.15,6,6,0,0,0-3.79-.87,5.19,5.19,0,0,0-2.44.93C574.76,208.67,574.56,209,574.58,209Z" style="fill:#ff9a6c"></path><path d="M587.9,188.92a17.58,17.58,0,0,0-2.6,2l-6.12,5c-2.33,1.83-4.44,3.49-6.2,4.89a19,19,0,0,0-2.53,2.09,14.85,14.85,0,0,0,2.8-1.72c1.67-1.16,3.92-2.82,6.34-4.76s4.53-3.76,6-5.14A15,15,0,0,0,587.9,188.92Z" style="fill:#ff9a6c"></path><path d="M574,214.18a4.63,4.63,0,0,0,.89.51,3,3,0,0,1,1.69,1.89,1.61,1.61,0,0,1-.54,1.52,8.57,8.57,0,0,1-1.76,1.2,3.66,3.66,0,0,0-1.78,1.92,3.11,3.11,0,0,0,.56,2.76,3.53,3.53,0,0,0,2.5,1.3,4.45,4.45,0,0,0,2.56-.48,14.32,14.32,0,0,0,3.26-2.68,8.69,8.69,0,0,0,1.6-2.34,1.84,1.84,0,0,0,.2-1,10,10,0,0,0-.43.91,9.84,9.84,0,0,1-1.71,2.14,15.35,15.35,0,0,1-3.21,2.46,3.55,3.55,0,0,1-4.25-.69,2.46,2.46,0,0,1-.46-2.18,3.08,3.08,0,0,1,1.48-1.59,8.81,8.81,0,0,0,1.84-1.35,2.07,2.07,0,0,0,.59-2,3.19,3.19,0,0,0-2-2A2.62,2.62,0,0,0,574,214.18Z" style="fill:#ff9a6c"></path><path d="M575.79,224.76s-.35.12-.67.65A2.8,2.8,0,0,0,575,228a3.83,3.83,0,0,0,3.14,2.11,6.3,6.3,0,0,0,4.41-1.45,7.45,7.45,0,0,0,2.56-3.84,7.09,7.09,0,0,0,0-3.75,6.56,6.56,0,0,0-1.09-2.27c-.36-.48-.62-.69-.65-.66a11.75,11.75,0,0,1,1.29,3,7,7,0,0,1-.13,3.48,7.09,7.09,0,0,1-2.39,3.49,5.84,5.84,0,0,1-3.94,1.37,3.42,3.42,0,0,1-2.78-1.71,2.72,2.72,0,0,1-.07-2.23C575.57,225,575.83,224.8,575.79,224.76Z" style="fill:#ff9a6c"></path><path d="M560,222.82c.05,0-.23-.57-1-1.21a6.19,6.19,0,0,0-3.78-1.37l.22.53a18.94,18.94,0,0,0,1.49-1.66c2.72-3.38,3.42-6.92,3.25-6.92s-1.14,3.26-3.76,6.52c-.47.59-1,1.13-1.43,1.62l-.51.53h.73a6.53,6.53,0,0,1,3.56,1.06C559.58,222.44,560,222.87,560,222.82Z" style="fill:#ff9a6c"></path><path d="M582.19,205.57c-.16-.07-.68,1.16-.26,2.67s1.5,2.31,1.6,2.17-.62-1-1-2.34S582.38,205.62,582.19,205.57Z" style="fill:#ff9a6c"></path><path d="M442,394.17c-.89-45.23-4.94-137.15-4.94-137.15l-9.16-32s-10.17-1.31-18.12-2.19-17.19-2.72-17.19-2.72L386.8,211l-47.7-2.79-7.29,13.52S301.94,237.24,298,239.43s22,109.43,22,109.43l-5,45.31Z" style="fill:#C4C4C6"></path><path d="M400.5,398.11c-.19-8.14-.6-17.84-1.15-28.6s-1.46-22.57-2.64-34.94-2.71-24.13-4.33-34.78-3.43-20.19-5.27-28.12q-.67-3-1.27-5.68c-.46-1.77-.89-3.45-1.29-5-.8-3.13-1.49-5.84-2.17-8s-1.12-3.82-1.47-5c-.15-.54-.26-1-.36-1.32a1.36,1.36,0,0,1-.09-.46,2.29,2.29,0,0,1,.18.43c.12.34.26.76.45,1.29.39,1.21.94,2.88,1.63,5s1.48,4.85,2.32,8q.65,2.36,1.37,5c.42,1.8.87,3.69,1.33,5.67,1.93,7.94,3.71,17.5,5.47,28.14s3.17,22.43,4.41,34.82,2,24.22,2.58,35,.85,20.48.95,28.63" style="fill:#263238"></path><path d="M424.76,276.84s60.86,20,73,17.43,35.78-31.84,41.8-39.3c6.83-8.46,14-19.3,14-19.3l-18.27-21.11-6.75,5.57s-35.8,34.63-39.45,34.63-37.84-17.63-37.84-17.63-16.66-11.19-23.59-12.23-9.57,10.79-9.57,10.79Z" style="fill:#C4C4C6"></path><path d="M437.06,257a21.28,21.28,0,0,1,.29,3.09c.13,2,.27,4.87.41,8.44.29,7.12.53,17,.82,27.85s.65,20.71,1,27.83c.17,3.45.31,6.29.42,8.43a20.29,20.29,0,0,1,.06,3.1,18.79,18.79,0,0,1-.42-3.07c-.21-2-.45-4.86-.71-8.42-.52-7.12-1-17-1.27-27.85s-.43-20.73-.55-27.85c-.05-3.46-.09-6.3-.12-8.45A18.31,18.31,0,0,1,437.06,257Z" style="fill:#263238"></path><g style="opacity:0.30000000000000004"><path d="M435.39,334.57c-.35-2.83-2.61-5.15-5.23-6.33a23.14,23.14,0,0,0-8.43-1.56,148.6,148.6,0,0,0-103.1,35.47l-1.46,10.11c9.07,3.84,19.6,1.21,28.59-2.81s17.55-9.4,27.23-11.27c8.4-1.61,17.44-.53,25.19-4.11,4.88-2.26,8.9-6.25,14-7.9,4.58-1.48,9.58-.94,14.27-2S436,339.31,435.39,334.57Z"></path></g><path d="M298,239.43S281.28,253.64,279,264.85s-9.79,41.85-9.79,41.85-7.92,36.62-6.79,43.72,3.51,22.95,19,24.82,69.21-17.72,69.21-17.72l14.7-6-5.65-26.91L334.41,331l-24.72,2L313,310.59l5.48-14.38s-.3-15.67-6.33-28.75S298,239.43,298,239.43Z" style="fill:#C4C4C6"></path><path d="M390.12,311.82l19.51-39.43a7.91,7.91,0,0,1,7.08-4.37h49a2.38,2.38,0,0,1,2.12,3.51L434.67,333a5.35,5.35,0,0,1-4.71,2.79H379.12Z" style="fill:#455a64"></path><path d="M467.53,271.82a4,4,0,0,1-1,.08l-2.81.05H453.42l-34-.29a9.7,9.7,0,0,0-4.52,1.09,8.41,8.41,0,0,0-3,3.3c-1.42,2.69-2.62,5.5-3.86,8.06l-6.51,13.75L397,307.1l-1.25,2.49a4.48,4.48,0,0,1-.49.84,3.75,3.75,0,0,1,.32-.92l1.1-2.56,4.19-9.36,6.33-13.83c1.23-2.6,2.37-5.33,3.84-8.15A9.33,9.33,0,0,1,414.4,272a10.59,10.59,0,0,1,5-1.21c13.35.09,25.35.37,34.08.55l10.32.29,2.8.13A3.83,3.83,0,0,1,467.53,271.82Z" style="fill:#263238"></path><path d="M437.32,280.46a1.6,1.6,0,0,1,.74,2.44,2.35,2.35,0,0,1-2.6,1,1.82,1.82,0,0,1-1.35-1.29,2.24,2.24,0,0,1,1.5-2.24A3.45,3.45,0,0,1,437.32,280.46Z" style="fill:#fff"></path><path d="M360.16,327l3.38-3.45s5-7.16,7-9.4,14.22-10.07,14.22-10.07,5.87-7.89,6.77-7.89,3.76.51,3,4.18A55.6,55.6,0,0,1,391.29,311l26,.57a5.51,5.51,0,0,1,4.24,2c.68.86,1,1.81-.25,2.41-2.71,1.34-13.76,4-13.76,4l4.93-1.26s1.06,4.68-2.06,6.9-3.33,2.64-3.33,2.64-.15,4.43-1.5,6.22-16,9.27-16,9.27-9.37,2.74-14.1,2.52-9.62,2.44-10.15,2.58S360.16,327,360.16,327Z" style="fill:#ffbf9d"></path><path d="M393.79,311.09c0,.25-3.28.38-7.31.81s-7.34.64-7.36.36,3.21-.83,7.27-1.27S393.81,310.84,393.79,311.09Z" style="fill:#ff9a6c"></path><path d="M390.32,322.54c-.08-.28,4.67-1.56,10.63-2.24,3-.38,5.67-.64,7.61-.86a15.43,15.43,0,0,1,3.18-.24,9.05,9.05,0,0,1-3.08.88c-1.93.38-4.63.75-7.59,1.12C395.12,321.88,390.38,322.75,390.32,322.54Z" style="fill:#ff9a6c"></path><path d="M390.32,331c0-.27,3.79-.38,8.37-1.17s8.2-1.91,8.3-1.66-3.46,1.77-8.14,2.56S390.31,331.22,390.32,331Z" style="fill:#ff9a6c"></path><path d="M391.89,340.44c-.25,0-.63-1-.84-2.26s-.19-2.37.06-2.42.63,1,.85,2.27S392.14,340.4,391.89,340.44Z" style="fill:#ff9a6c"></path><path d="M389.56,329.11c-.26,0-.4-.86-.84-1.74s-1-1.52-.86-1.74,1.13.2,1.69,1.34S389.81,329.16,389.56,329.11Z" style="fill:#ff9a6c"></path><path d="M386.59,317.77c-.26,0-.52-.51-.84-1.12s-.58-1.15-.4-1.34.83.15,1.23.93S386.84,317.75,386.59,317.77Z" style="fill:#ff9a6c"></path><path d="M380.46,246.14a9.61,9.61,0,0,1-1.49-.85l-4.1-2.45c-1.77-1-3.9-2.28-6.3-3.75a59.32,59.32,0,0,1-7.72-5.38l.68-.11a25.12,25.12,0,0,0-2.77,12.46v.06l0,1-.79-.66c-7.65-6.48-14.51-12.43-19.28-16.94-2.39-2.26-4.28-4.13-5.54-5.46a15.41,15.41,0,0,1-1.89-2.14,18.59,18.59,0,0,1,2.14,1.89l5.73,5.23c4.87,4.39,11.79,10.25,19.44,16.72l-.76.37v-.06a25.58,25.58,0,0,1,2.93-12.89l.25-.49.42.37a62.39,62.39,0,0,0,7.52,5.39l6.18,3.92c1.73,1.1,3.08,2,4,2.65A7.34,7.34,0,0,1,380.46,246.14Z" style="fill:#263238"></path><path d="M392.59,220.06a9.38,9.38,0,0,1,1,1.89c.56,1.25,1.33,3.09,2.21,5.37s1.89,5,2.82,8.15c.24.78.46,1.59.64,2.44a5,5,0,0,1,.12,1.46.67.67,0,0,1-.76.5.68.68,0,0,1-.39-.23l-.11-.13-.4-.52-3.37-4.32L390,229l.75-.06c-2.72,5.1-5.19,9.45-7.06,12.48-.94,1.52-1.72,2.71-2.29,3.51a5.18,5.18,0,0,1-1,1.17,5.92,5.92,0,0,1,.7-1.34l2-3.62c1.73-3.1,4.09-7.5,6.76-12.61l.32-.61.43.55,4.35,5.58,3.33,4.31.4.52.1.13-.16.17h0v0h0l-.23-.06a5.2,5.2,0,0,0-.11-1.09c-.17-.81-.37-1.6-.59-2.38-.88-3.09-1.83-5.85-2.62-8.16-.77-2.16-1.41-4-1.94-5.45A10.27,10.27,0,0,1,392.59,220.06Z" style="fill:#263238"></path><path d="M278.34,330.44a16.81,16.81,0,0,1,4.53-1.2,45.81,45.81,0,0,1,22.4,1.79,16.07,16.07,0,0,1,4.27,1.9,42.12,42.12,0,0,1-4.47-1.29A55.76,55.76,0,0,0,283,329.88,41,41,0,0,1,278.34,330.44Z" style="fill:#263238"></path><path d="M293.94,323.76c0-.22,4.3.35,8.89,2.88s7.39,5.76,7.21,5.9-3.19-2.69-7.65-5.1S293.87,324,293.94,323.76Z" style="fill:#263238"></path><path d="M315,297.35a2.38,2.38,0,0,1,0,.64c-.06.47-.13,1.07-.22,1.83-.23,1.67-.56,4-1,7-.89,6.12-2.16,14.83-3.71,25.45v0c0,.23,0,.48-.05.74l-.39-.38,26.49-2.48h-.07l23.46-5.93.47-.12.1.47c.44,2.13.92,4.4,1.41,6.7,1.46,7,2.88,13.75,4.23,20.2l.08.37-.35.14A414.59,414.59,0,0,1,316,368.87c-6.3,1.7-11.38,2.91-14.88,3.69l-4,.87-1.05.2a1.19,1.19,0,0,1-.36.05s.12-.06.35-.12l1-.28,4-1c3.47-.88,8.52-2.17,14.8-3.94a445.91,445.91,0,0,0,49.31-17.19l-.27.51-4.26-20.21c-.48-2.29-.95-4.57-1.4-6.7l.56.35L336.29,331h-.07l-26.5,2.34-.42,0,0-.42c0-.26,0-.51.05-.73v0h0c1.68-10.61,3.06-19.3,4-25.41.49-3,.88-5.3,1.16-7,.13-.75.24-1.35.33-1.82A4.65,4.65,0,0,1,315,297.35Z" style="fill:#263238"></path><path d="M316.81,270.93a40,40,0,0,1-1.14-4.49,52.18,52.18,0,0,0-9.92-19.72c-1.79-2.23-3-3.5-2.92-3.61a16.49,16.49,0,0,1,3.42,3.2,43.08,43.08,0,0,1,10.05,20A16,16,0,0,1,316.81,270.93Z" style="fill:#263238"></path><g style="opacity:0.30000000000000004"><path d="M317.71,280.05c-2.13,11.5-3.65,24.48-5.5,36,.44.54.2,2.26.64,2.8,2.14-5.91,5-13,6.17-19.21S319.37,286.11,317.71,280.05Z"></path></g><g style="opacity:0.30000000000000004"><path d="M363.23,243.19l15.89,2.18a114.37,114.37,0,0,1-18-12c-2,4.64-3.1,6.33-2.77,13-7.69-6.41-15-13.73-22.69-20.14a133.89,133.89,0,0,0,28.79,30.42A50.32,50.32,0,0,1,363.23,243.19Z"></path></g><path d="M355.56,105.63a8.53,8.53,0,0,1,8.69-4.6,11.72,11.72,0,0,1,14.34-.23,10.65,10.65,0,0,1,10.21-.54,10.47,10.47,0,0,1,5.71,8.4,8.91,8.91,0,0,1,9.2,4.21,8.75,8.75,0,0,1-1.14,10A8.25,8.25,0,0,1,399.63,139l-42.18-23.79A8.39,8.39,0,0,1,355.56,105.63Z" style="fill:#263238"></path><path d="M405,184.7c-.2-9.07-2.16-27.72-4.13-44.57a35.2,35.2,0,0,0-36.3-31l-1.82.06c-19.66,1.82-29.09,19.4-26.71,38.83l5.54,61.29,38,34.3,8.29-24.24-1.32-12.35S405.44,203.49,405,184.7Z" style="fill:#ffbf9d"></path><path d="M386.76,207a46.27,46.27,0,0,1-25.06-6.34s6.31,13.31,25.14,11Z" style="fill:#ff9a6c"></path><path d="M396,156.45a2.69,2.69,0,0,1-2.52,2.79,2.58,2.58,0,0,1-2.87-2.32,2.71,2.71,0,0,1,2.51-2.8A2.59,2.59,0,0,1,396,156.45Z" style="fill:#263238"></path><path d="M397.14,149.45c-.33.36-2.43-1.07-5.34-1s-5,1.63-5.32,1.28c-.16-.15.16-.79,1.07-1.49a7.35,7.35,0,0,1,4.24-1.46,7.1,7.1,0,0,1,4.26,1.2C397,148.67,397.3,149.29,397.14,149.45Z" style="fill:#263238"></path><path d="M369.71,157.86a2.71,2.71,0,0,1-2.52,2.8,2.59,2.59,0,0,1-2.87-2.33,2.69,2.69,0,0,1,2.51-2.79A2.59,2.59,0,0,1,369.71,157.86Z" style="fill:#263238"></path><path d="M368.55,151c-.32.36-2.42-1.07-5.33-1s-5,1.62-5.32,1.28c-.16-.15.15-.8,1.06-1.5a7.53,7.53,0,0,1,4.25-1.46,7.17,7.17,0,0,1,4.26,1.21C368.38,150.2,368.71,150.82,368.55,151Z" style="fill:#263238"></path><path d="M379.86,172c0-.16,1.78-.53,4.7-1,.74-.11,1.44-.28,1.55-.78a3.79,3.79,0,0,0-.58-2.17l-2.39-5.54c-3.33-7.88-5.77-14.37-5.45-14.5s3.28,6.15,6.61,14c.81,1.94,1.58,3.79,2.31,5.57a4.24,4.24,0,0,1,.48,2.88,1.85,1.85,0,0,1-1.18,1.11,4.52,4.52,0,0,1-1.26.22C381.71,172.1,379.88,172.18,379.86,172Z" style="fill:#263238"></path><path d="M371.37,174.31c.47-.05.59,3.08,3.37,5.21s6.13,1.67,6.17,2.11c0,.2-.73.63-2.15.72a7.89,7.89,0,0,1-5.14-1.58,6.76,6.76,0,0,1-2.62-4.38C370.83,175.08,371.15,174.3,371.37,174.31Z" style="fill:#263238"></path><path d="M368.91,139.65c-.26.79-3.18.52-6.58,1s-6.13,1.55-6.61.86c-.21-.33.24-1.08,1.33-1.88a11.6,11.6,0,0,1,10-1.45C368.37,138.67,369,139.27,368.91,139.65Z" style="fill:#263238"></path><path d="M395.77,141.14c-.49.67-2.51.06-4.93.11s-4.43.6-4.93-.07c-.21-.33.08-1,1-1.65a6.82,6.82,0,0,1,4-1.21,6.92,6.92,0,0,1,4,1.18C395.68,140.15,396,140.81,395.77,141.14Z" style="fill:#263238"></path><path d="M398.76,131.58s-5.41-11.59-11.22-14.14c-7-3.08-9.76,4.56-16.42,3s-13.38-4.56-19.94.73c-7.19,5.79-3.59,9.55-3.76,17.9-.66,33.84-6.54,43.61-8.87,27.76-.26-1.74-5.18-3-6.16-10.3-1.28-9.51-2.05-21.1-.14-28,1.61-5.77,4.75-9.83,10.49-14.39,9.06-7.19,21.82-7.77,30.52-7.21S399,116.83,398.76,131.58Z" style="fill:#263238"></path><path d="M339.74,166.24a5.12,5.12,0,0,0-5.72-4.72c-3.52.45-7.38,2.57-6.9,9.8.87,12.83,13.67,9.32,13.67,9S340.15,171.6,339.74,166.24Z" style="fill:#ffbf9d"></path><path d="M337.65,175.63c-.06,0-.21.18-.58.37a2.26,2.26,0,0,1-1.68.15c-1.4-.41-2.7-2.48-2.92-4.79a7.3,7.3,0,0,1,.42-3.24,2.61,2.61,0,0,1,1.58-1.83,1.16,1.16,0,0,1,1.37.53c.19.35.13.61.2.62s.26-.23.12-.75a1.4,1.4,0,0,0-.56-.77,1.73,1.73,0,0,0-1.27-.25,3.19,3.19,0,0,0-2.22,2.15,7.66,7.66,0,0,0-.54,3.62c.26,2.58,1.76,4.91,3.66,5.32a2.41,2.41,0,0,0,2-.47C337.65,176,337.7,175.65,337.65,175.63Z" style="fill:#ff9a6c"></path><path d="M339.12,141.35c1.72,1.08,3.54,2.2,5.57,2.33s4.31-1.11,4.58-3.11c.12-.9-.13-1.93.43-2.64s2-.64,3.08-.56a8.26,8.26,0,0,0,8.37-6.17c1,1.39,3.25,1.25,4.67.27s2.3-2.53,3.4-3.86,2.64-2.54,4.36-2.35c1,.1,1.88.63,2.84.51,1.69-.21,2.45-2.21,2.65-3.89s.33-3.64,1.74-4.6,3.05-.46,4.62-.29,3.58-.26,3.93-1.79a3,3,0,0,0-.66-2.31,8.44,8.44,0,0,0-10-2.8,11.41,11.41,0,0,0-20.95-1.47,11.84,11.84,0,0,0-10.41-2.32,11.72,11.72,0,0,0-7.88,7.13,8.62,8.62,0,0,0-8.63,3.24,8.42,8.42,0,0,0-.37,9.14c-2.28,1.4-4.19,3.76-4.15,6.42s2.75,5.22,5.31,4.43a4.75,4.75,0,0,0,2,6,4.82,4.82,0,0,0,6.13-1.67" style="fill:#263238"></path><path d="M330.66,136.67a3.06,3.06,0,0,0,.89,2.44,4.18,4.18,0,0,0,2.65,1.44,4.52,4.52,0,0,0,3.65-1.19l-.55-.06a13,13,0,0,0,2.7,3.11,7.52,7.52,0,0,0,2.41,1.37,5,5,0,0,0,2.61.15,5.11,5.11,0,0,0,3.67-2.25,7.51,7.51,0,0,0,.95-2.71c.11-.66.11-1,.06-1a3.63,3.63,0,0,0-.34,1,8.86,8.86,0,0,1-1.11,2.48c-1.17,1.88-5.13,3-7.78.45a12.88,12.88,0,0,1-2.56-2.92l-.25-.37-.31.31a3.92,3.92,0,0,1-3.08,1.09,3.83,3.83,0,0,1-2.39-1.14A6.16,6.16,0,0,1,330.66,136.67Z" style="fill:#455a64"></path><path d="M367,176.33c.22,0,.25-1.36,1.31-2.52s2.37-1.4,2.35-1.6-.37-.19-.95-.07a3.81,3.81,0,0,0-2,1.18,3.66,3.66,0,0,0-.93,2.08C366.75,176,366.89,176.34,367,176.33Z" style="fill:#ff9a6c"></path><path d="M365.71,172.82c.19.1.64-.36,1.32-.69s1.31-.43,1.34-.64-.79-.47-1.68,0S365.53,172.74,365.71,172.82Z" style="fill:#ff9a6c"></path><path d="M389.41,100.59c.06-.13,1.4.71,2.44,2.84a10.83,10.83,0,0,1,1.16,4,7.21,7.21,0,0,1-1.34,4.92,10.4,10.4,0,0,1-4,3.11,30,30,0,0,1-3.82,1.44,17.21,17.21,0,0,1-3.62.92,14.09,14.09,0,0,1,3.41-1.53c1.06-.42,2.33-.91,3.66-1.58a10.42,10.42,0,0,0,3.67-2.89,6.6,6.6,0,0,0,1.23-4.34,11.35,11.35,0,0,0-.9-3.74A15.57,15.57,0,0,0,389.41,100.59Z" style="fill:#e0e0e0"></path><path d="M397.62,109c.11,0,.19.81-.16,2.06a9.36,9.36,0,0,1-2.68,4.25,9.57,9.57,0,0,1-4.48,2.32c-1.28.24-2.09.1-2.09,0s.77-.24,1.92-.63a11.15,11.15,0,0,0,6.72-6.15C397.33,109.77,397.48,109,397.62,109Z" style="fill:#e0e0e0"></path><path d="M493.27,277.08c-.14,0-1.29-5-2.58-11.22s-2.2-11.31-2.06-11.34,1.29,5,2.57,11.23S493.41,277.06,493.27,277.08Z" style="fill:#263238"></path></g><g id="freepik--Calendar--inject-127"><path d="M217.33,67H136.75a7.37,7.37,0,0,0-7.37,7.37V155a7.37,7.37,0,0,0,7.37,7.37h80.58A7.37,7.37,0,0,0,224.7,155V74.39A7.37,7.37,0,0,0,217.33,67Z" style="fill:#fff"></path><path d="M129.38,67H224.7a0,0,0,0,1,0,0V91.53a5.58,5.58,0,0,1-5.58,5.58H135.2a5.82,5.82,0,0,1-5.82-5.82V67A0,0,0,0,1,129.38,67Z" transform="translate(354.08 164.14) rotate(180)" style="fill:#C4C4C6"></path><path d="M170.73,109.33v32.4h-7.5V115.35h-6.48v-6Z" style="fill:#263238"></path><path d="M201.75,109.33v4.86l-12,27.54h-8.15l11.62-26.29H182.44v5.28h-6.66V109.33Z" style="fill:#263238"></path><path d="M163.73,84.09c0,.17,6.55.31,14.62.31S193,84.26,193,84.09s-6.55-.3-14.63-.3S163.73,83.92,163.73,84.09Z" style="fill:#263238"></path><path d="M217.33,67a6.78,6.78,0,0,1,.95,0,7.06,7.06,0,0,1,2.66.85A7.43,7.43,0,0,1,224.77,74c0,1,0,2.13,0,3.3,0,9.34,0,22.83.08,39.5,0,8.34,0,17.47,0,27.28q0,3.67,0,7.47c0,1.28,0,2.53,0,3.85a7.5,7.5,0,0,1-4.26,6.4,8.08,8.08,0,0,1-4,.77h-8.16l-71.73,0a7.66,7.66,0,0,1-7.33-5.49,8.16,8.16,0,0,1-.31-2.4V129.4c0-12,0-23.57,0-34.6,0-5.51,0-10.89,0-16.11V74.8a10,10,0,0,1,.16-2A7.49,7.49,0,0,1,130,71a7.58,7.58,0,0,1,2.52-2.89,7.73,7.73,0,0,1,3.56-1.27c9.85-.06,18.95,0,27.3,0l39.5.08,10.73,0,2.8,0,1,0-1,0-2.8,0-10.73.05-39.5.08c-8.33,0-17.49,0-27.26.07a7.33,7.33,0,0,0-3.35,1.2,7.23,7.23,0,0,0-2.38,2.73,7.49,7.49,0,0,0-.61,1.74,8.77,8.77,0,0,0-.14,1.86v3.89c0,5.22,0,10.6,0,16.11,0,11,0,22.6,0,34.6q0,9,0,18.31v4.66a18,18,0,0,0,.29,4.6,7.16,7.16,0,0,0,6.83,5.11l71.73,0h8.16a7.84,7.84,0,0,0,3.79-.72,7.22,7.22,0,0,0,2.85-2.49,7.12,7.12,0,0,0,1.16-3.53c0-1.26,0-2.56,0-3.82v-7.47c0-9.81,0-18.94,0-27.28,0-16.67.07-30.16.09-39.5,0-1.16,0-2.27,0-3.29a7.34,7.34,0,0,0-6.32-6.9c-.31,0-.54,0-.7-.06Z" style="fill:#263238"></path><rect x="159.82" y="57.68" width="6.2" height="21.53" rx="3" style="fill:#e0e0e0"></rect><path d="M162.82,79.21a3.85,3.85,0,0,1-1.77-.73,2.87,2.87,0,0,1-1-1.88c-.05-.86,0-1.92,0-3,0-2.31,0-5,.07-8,0-1.5,0-3.08,0-4.72a2.74,2.74,0,0,1,.78-2A2.8,2.8,0,0,1,163,58a2.73,2.73,0,0,1,2,.94,2.84,2.84,0,0,1,.66,2.12c0,1.63,0,3.21,0,4.72,0,3,0,5.69.06,8q0,.84,0,1.62a9.06,9.06,0,0,1,0,1.41,2.89,2.89,0,0,1-1.17,1.81,4,4,0,0,1-1.8.61,1.43,1.43,0,0,0,.51,0,2.91,2.91,0,0,0,1.43-.45,3.12,3.12,0,0,0,1.36-1.94,7.27,7.27,0,0,0,.09-1.48q0-.78,0-1.62c0-2.31,0-5,.06-8,0-1.51,0-3.09,0-4.72a3.45,3.45,0,0,0-.8-2.52,3.34,3.34,0,0,0-2.5-1.15,3.31,3.31,0,0,0-3.5,3.46c0,1.64,0,3.22,0,4.72,0,3,0,5.69.06,8,0,1.15,0,2.15.08,3.09a3.09,3.09,0,0,0,1.23,2,2.9,2.9,0,0,0,1.39.55A1.23,1.23,0,0,0,162.82,79.21Z" style="fill:#263238"></path><rect x="188.91" y="57.68" width="6.2" height="21.53" rx="3" style="fill:#e0e0e0"></rect><path d="M191.91,79.21a3.87,3.87,0,0,1-1.76-.73,2.87,2.87,0,0,1-1-1.88c-.05-.86,0-1.92,0-3,0-2.31,0-5,.07-8,0-1.5,0-3.08,0-4.72A2.73,2.73,0,0,1,192.12,58a2.73,2.73,0,0,1,2,.94,2.84,2.84,0,0,1,.66,2.12c0,1.63,0,3.21,0,4.72,0,3,0,5.69.06,8,0,.56,0,1.1,0,1.62a8,8,0,0,1,0,1.41,3,3,0,0,1-1.17,1.81,4,4,0,0,1-1.81.61,1.52,1.52,0,0,0,.52,0,2.91,2.91,0,0,0,1.43-.45,3.16,3.16,0,0,0,1.36-1.94,8.07,8.07,0,0,0,.09-1.48c0-.52,0-1.06,0-1.62,0-2.31,0-5,.07-8,0-1.51,0-3.09,0-4.72a3.49,3.49,0,0,0-.8-2.52,3.4,3.4,0,0,0-6,2.31c0,1.64,0,3.22,0,4.72,0,3,.05,5.69.07,8,0,1.15,0,2.15.08,3.09a3.09,3.09,0,0,0,1.23,2,2.91,2.91,0,0,0,1.38.55A1.2,1.2,0,0,0,191.91,79.21Z" style="fill:#263238"></path></g><g id="freepik--stopwatch--inject-127"><rect x="394.18" y="380.4" width="82.51" height="80.13" rx="8.1" style="fill:#fff"></rect><path d="M468.58,460.52a9.14,9.14,0,0,0,3.07-.66,8.09,8.09,0,0,0,3-2.23,8,8,0,0,0,1.88-4.73c0-7.89,0-19.28-.06-33.35,0-7.05,0-14.76,0-23q0-3.11,0-6.32a16,16,0,0,0-.15-3.18,7.6,7.6,0,0,0-1.21-2.93,7.92,7.92,0,0,0-5.37-3.36,31.48,31.48,0,0,0-3.39-.09h-3.47l-60.59,0a7.85,7.85,0,0,0-7.81,7.11c-.07,1.27,0,2.62,0,3.92q0,7.85,0,15.46c0,10.13,0,19.91,0,29.22q0,7,0,13.61c0,1.09,0,2.22,0,3.26a7.76,7.76,0,0,0,.94,3A7.89,7.89,0,0,0,400,460a9.38,9.38,0,0,0,3,.33h8.91l11.05,0,33.36.08,9.07.05,2.36,0,.8,0-.8,0-2.36,0-9.07,0-33.36.09H403a10,10,0,0,1-3.11-.34,8.38,8.38,0,0,1-4.93-4,8.07,8.07,0,0,1-1-3.15c-.09-1.13,0-2.2-.05-3.31q0-6.62,0-13.61c0-9.31,0-19.09,0-29.22V391.69c0-1.32,0-2.6,0-4a8.39,8.39,0,0,1,1.34-3.83,8.64,8.64,0,0,1,3-2.76,8.51,8.51,0,0,1,4-1l60.59,0h3.47a28.68,28.68,0,0,1,3.46.1,8.3,8.3,0,0,1,7,6.66,18.12,18.12,0,0,1,.15,3.27c0,2.14,0,4.25,0,6.32,0,8.28,0,16,0,23,0,14.08,0,25.48-.11,33.37a8.14,8.14,0,0,1-5.07,7,8.43,8.43,0,0,1-2.3.55C468.86,460.53,468.58,460.52,468.58,460.52Z" style="fill:#263238"></path><rect x="411.23" y="401.49" width="3.51" height="5.48" transform="translate(-164.89 400.08) rotate(-43.97)" style="fill:#263238"></rect><path d="M414.84,400.91l-5.21,5-4.1-4.25a13.82,13.82,0,0,1,5.2-5Z" style="fill:#455a64"></path><path d="M410.5,405.09a11.65,11.65,0,0,1-2.3-2.06,11.32,11.32,0,0,1-2-2.35,22.84,22.84,0,0,1,4.3,4.41Z" style="fill:#263238"></path><path d="M411.49,404.13a12.41,12.41,0,0,1-2.28-2.18,16.21,16.21,0,0,1-2-2.42,9.53,9.53,0,0,1,2.33,2.14A11.46,11.46,0,0,1,411.49,404.13Z" style="fill:#263238"></path><path d="M412.82,402.86a12.48,12.48,0,0,1-2.3-2.22,15,15,0,0,1-2-2.47,10.42,10.42,0,0,1,2.33,2.19A12.61,12.61,0,0,1,412.82,402.86Z" style="fill:#263238"></path><path d="M414,401.66a11.28,11.28,0,0,1-2.29-2.08,11.09,11.09,0,0,1-2-2.38,12,12,0,0,1,2.28,2.09A11.84,11.84,0,0,1,414,401.66Z" style="fill:#263238"></path><rect x="454.75" y="399.57" width="3.51" height="5.48" transform="translate(397.24 -203.28) rotate(43.02)" style="fill:#263238"></rect><path d="M459.92,404l-5.29-4.93,4-4.33a13.88,13.88,0,0,1,5.29,4.94Z" style="fill:#455a64"></path><path d="M455.51,399.88a11.59,11.59,0,0,1,1.94-2.4,12.16,12.16,0,0,1,2.24-2.13,11.24,11.24,0,0,1-1.93,2.41A11.37,11.37,0,0,1,455.51,399.88Z" style="fill:#263238"></path><path d="M456.52,400.82a12.63,12.63,0,0,1,2.06-2.39,16.2,16.2,0,0,1,2.32-2.15,9.44,9.44,0,0,1-2,2.44A11.48,11.48,0,0,1,456.52,400.82Z" style="fill:#263238"></path><path d="M457.87,402.08a11.58,11.58,0,0,1,2.09-2.41,14.57,14.57,0,0,1,2.36-2.15,10.4,10.4,0,0,1-2.06,2.44A12.62,12.62,0,0,1,457.87,402.08Z" style="fill:#263238"></path><path d="M459.12,403.21a11.14,11.14,0,0,1,2-2.39,11.9,11.9,0,0,1,2.27-2.11,11.33,11.33,0,0,1-2,2.4A11.64,11.64,0,0,1,459.12,403.21Z" style="fill:#263238"></path><rect x="432.63" y="390.79" width="4.16" height="6.49" transform="translate(-21.83 25.51) rotate(-3.28)" style="fill:#263238"></rect><path d="M438.94,392.49l-8.56.49-.4-7a16.44,16.44,0,0,1,8.56-.49Z" style="fill:#C4C4C6"></path><path d="M438.64,385.53a9.3,9.3,0,0,1-8.69.54,21.35,21.35,0,0,0,4.38.39A22.57,22.57,0,0,0,438.64,385.53Z" style="fill:#263238"></path><path d="M433.21,392.8a10.61,10.61,0,0,1-.38-3,10.36,10.36,0,0,1,0-3,21.48,21.48,0,0,1,.34,6Z" style="fill:#263238"></path><path d="M434.84,392.74a10.53,10.53,0,0,1-.38-3,11.21,11.21,0,0,1,0-3,10.74,10.74,0,0,1,.39,3A11.4,11.4,0,0,1,434.84,392.74Z" style="fill:#263238"></path><path d="M436.46,392.62a11.46,11.46,0,0,1-.38-3,11,11,0,0,1,0-3,21.62,21.62,0,0,1,.34,6Z" style="fill:#263238"></path><path d="M437.82,392.55a13,13,0,0,1-.4-3.24,12.6,12.6,0,0,1,0-3.27,13.28,13.28,0,0,1,.39,3.24A12.37,12.37,0,0,1,437.82,392.55Z" style="fill:#263238"></path><path d="M431.67,392.86a13,13,0,0,1-.4-3.24,12.6,12.6,0,0,1,0-3.27,13.28,13.28,0,0,1,.39,3.24A13.48,13.48,0,0,1,431.67,392.86Z" style="fill:#263238"></path><circle cx="436.01" cy="425.52" r="30.26" transform="translate(-173.18 432.94) rotate(-45)" style="fill:#C4C4C6"></circle><circle cx="435.99" cy="425.27" r="25.41" transform="translate(-29.77 32.83) rotate(-4.17)" style="fill:#fafafa"></circle><path d="M461.37,423.82s0-.14-.07-.41-.08-.68-.15-1.2c0-.26-.07-.56-.1-.88s-.15-.67-.23-1.05a17.17,17.17,0,0,0-.68-2.58,23.91,23.91,0,0,0-3.2-6.56,25.32,25.32,0,0,0-6.83-6.79,25,25,0,0,0-10.88-4.09,22.69,22.69,0,0,0-3.21-.19c-.54,0-1.09,0-1.65,0l-1.66.18c-.28,0-.56.05-.84.11l-.83.18c-.55.12-1.12.22-1.68.37a26,26,0,0,0-3.3,1.18,24.71,24.71,0,0,0-3.2,1.63c-.51.32-1,.68-1.51,1a12.12,12.12,0,0,0-1.46,1.13,28.8,28.8,0,0,0-2.72,2.59,29.1,29.1,0,0,0-2.3,3.06,24.78,24.78,0,0,0-3.2,7.14,25,25,0,0,0,.91,15.88,24.48,24.48,0,0,0,4,6.73,28.88,28.88,0,0,0,2.63,2.78,28,28,0,0,0,3,2.26,12.68,12.68,0,0,0,1.57,1c.55.28,1.08.59,1.63.85a26.8,26.8,0,0,0,3.36,1.26,27.7,27.7,0,0,0,3.42.79c.57.08,1.14.12,1.71.18l.84.08c.29,0,.57,0,.85,0h1.67c.55,0,1.1-.11,1.64-.16a23.16,23.16,0,0,0,3.16-.55,25,25,0,0,0,10.35-5.31,25.31,25.31,0,0,0,6-7.52,24.32,24.32,0,0,0,2.43-6.88,18.73,18.73,0,0,0,.38-2.65c0-.39.09-.74.1-1.07s0-.62,0-.89c0-.51,0-.92,0-1.21a3.24,3.24,0,0,1,0-.41s0,.14,0,.41,0,.69,0,1.21c0,.27,0,.57,0,.9s-.06.68-.09,1.07a17,17,0,0,1-.34,2.67,23.93,23.93,0,0,1-2.38,7,25.23,25.23,0,0,1-19.69,13.63c-.55.05-1.1.14-1.66.16l-1.7,0c-.28,0-.57,0-.85,0l-.86-.08c-.58-.06-1.16-.09-1.74-.18a28.46,28.46,0,0,1-3.47-.79,27.68,27.68,0,0,1-3.42-1.27c-.56-.26-1.1-.57-1.65-.86a13.11,13.11,0,0,1-1.6-1,28,28,0,0,1-3.05-2.3,28.67,28.67,0,0,1-2.68-2.82,24.75,24.75,0,0,1-4.07-6.84,25.36,25.36,0,0,1-.92-16.14,24.78,24.78,0,0,1,3.26-7.25,27.77,27.77,0,0,1,2.34-3.11,28.47,28.47,0,0,1,2.76-2.63,13.75,13.75,0,0,1,1.49-1.15c.51-.35,1-.71,1.54-1a26.82,26.82,0,0,1,3.25-1.65,28.48,28.48,0,0,1,3.35-1.19c.57-.15,1.15-.25,1.71-.37l.84-.18c.29,0,.57-.07.85-.1l1.69-.18c.56,0,1.12,0,1.67,0a24.77,24.77,0,0,1,3.25.2A25.58,25.58,0,0,1,457.14,411a24.31,24.31,0,0,1,3.16,6.65,17,17,0,0,1,.64,2.61c.08.38.16.73.21,1.05s.06.63.09.89c0,.52.08.92.11,1.21S461.37,423.82,461.37,423.82Z" style="fill:#263238"></path><path d="M457.64,423.64c-2.31.17-4.2.16-4.22,0a14.63,14.63,0,0,1,4.14-.8c2.31-.26,4.19-.26,4.22,0S460,423.47,457.64,423.64Z" style="fill:#263238"></path><path d="M452.54,439.33c-1.77-1.51-3.11-2.84-3-3s1.68.92,3.51,2.35,3.16,2.75,3,3S454.3,440.84,452.54,439.33Z" style="fill:#263238"></path><path d="M437.87,446.9c-.19-2.31-.21-4.2,0-4.21s.55,1.82.84,4.13.31,4.19,0,4.21S438.07,449.21,437.87,446.9Z" style="fill:#263238"></path><path d="M422.12,442c1.49-1.78,2.8-3.13,2.94-3a14.59,14.59,0,0,1-2.31,3.53c-1.41,1.84-2.72,3.2-2.93,3S420.64,443.75,422.12,442Z" style="fill:#263238"></path><path d="M414.39,427.39c2.31-.22,4.19-.26,4.21-.09s-1.82.57-4.12.89-4.18.36-4.21.09S412.09,427.61,414.39,427.39Z" style="fill:#263238"></path><path d="M419.15,411.59a15.17,15.17,0,0,1,3.06,2.9c-.11.14-1.7-.88-3.56-2.27s-3.22-2.69-3.06-2.9S417.35,410.12,419.15,411.59Z" style="fill:#263238"></path><path d="M433.64,403.7c.25,2.3.3,4.19.13,4.21s-.58-1.82-.93-4.11-.4-4.18-.13-4.22S433.4,401.39,433.64,403.7Z" style="fill:#263238"></path><path d="M449.5,408.28a14.93,14.93,0,0,1-2.87,3.09c-.14-.11.86-1.71,2.23-3.58s2.65-3.26,2.87-3.09S450.94,406.47,449.5,408.28Z" style="fill:#263238"></path><path d="M442.3,411.38a86.94,86.94,0,0,1,.3,11.18,13.81,13.81,0,0,1-.58,4,5.23,5.23,0,0,1-2.47,3.07,3.29,3.29,0,0,1-3.75-.51Z" style="fill:#e0e0e0"></path><polygon points="435.33 423.31 443.66 407.25 439.1 425.1 436.3 426.11 435.33 423.31" style="fill:#C4C4C6"></polygon><g style="opacity:0.4"><polygon points="443.66 407.25 437.73 423.51 439.1 425.1 443.66 407.25"></polygon></g><path d="M439.27,425.94a3,3,0,1,1-3.14-2.8A3,3,0,0,1,439.27,425.94Z" style="fill:#fafafa"></path><path d="M439.27,425.94s0-.26-.21-.69a3,3,0,0,0-1.18-1.48,2.84,2.84,0,0,0-2.67-.21,2.79,2.79,0,1,0,2.93,4.69,2.89,2.89,0,0,0,1-1.59c.11-.45.09-.72.13-.72a1.47,1.47,0,0,1,0,.75,2.94,2.94,0,0,1-1,1.79,3.09,3.09,0,0,1-2.93.66,3.16,3.16,0,0,1-.34-5.94,3.11,3.11,0,0,1,3,.33,3,3,0,0,1,1.17,1.67A1.46,1.46,0,0,1,439.27,425.94Z" style="fill:#263238"></path><path d="M438.51,426a2.21,2.21,0,1,1-2.33-2.08A2.21,2.21,0,0,1,438.51,426Z" style="fill:#455a64"></path></g></svg>
